0 spot
0 Name: spot.ldr
0 Author: legolization
0 !LDRAW_ORG Unofficial_Model
0 !LICENSE Licensed under GPL-3.0-or-later
0 ROTSTEP 0 90 0 REL
1 7 80 -8 90 0 0 -1 0 1 0 1 0 0 3023.dat
1 7 100 -8 80 1 0 0 0 1 0 0 0 1 3024.dat
1 7 180 -8 80 1 0 0 0 1 0 0 0 1 3024.dat
1 7 200 -8 90 0 0 -1 0 1 0 1 0 0 3023.dat
1 7 80 -8 290 0 0 -1 0 1 0 1 0 0 3023.dat
1 7 200 -8 290 0 0 -1 0 1 0 1 0 0 3023.dat
0 STEP
0 ROTSTEP 0 180 0 REL
1 7 70 -16 290 0 0 -1 0 1 0 1 0 0 3020.dat
1 7 100 -16 290 0 0 -1 0 1 0 1 0 0 3023.dat
1 7 210 -16 320 1 0 0 0 1 0 0 0 1 3023.dat
0 STEP
0 ROTSTEP 0 180 0 REL
1 7 70 -16 80 0 0 -1 0 1 0 1 0 0 3021.dat
1 7 100 -16 80 0 0 -1 0 1 0 1 0 0 3623.dat
1 7 190 -16 80 0 0 -1 0 1 0 1 0 0 3021.dat
1 7 220 -16 80 0 0 -1 0 1 0 1 0 0 3623.dat
1 7 200 -16 260 1 0 0 0 1 0 0 0 1 3024.dat
1 7 220 -16 280 0 0 -1 0 1 0 1 0 0 3623.dat
1 7 190 -16 290 1 0 0 0 1 0 0 0 1 3022.dat
0 STEP
0 ROTSTEP 0 180 0 REL
1 7 70 -24 290 0 0 -1 0 1 0 1 0 0 3020.dat
1 7 100 -24 290 0 0 -1 0 1 0 1 0 0 3710.dat
1 7 40 -24 290 0 0 -1 0 1 0 1 0 0 3023.dat
1 7 240 -24 290 0 0 -1 0 1 0 1 0 0 3023.dat
0 STEP
0 ROTSTEP 0 180 0 REL
1 7 200 -24 40 1 0 0 0 1 0 0 0 1 3024.dat
1 7 210 -24 60 1 0 0 0 1 0 0 0 1 3023.dat
1 7 200 -24 80 1 0 0 0 1 0 0 0 1 3024.dat
1 7 220 -24 90 0 0 -1 0 1 0 1 0 0 3023.dat
1 7 190 -24 110 1 0 0 0 1 0 0 0 1 3022.dat
1 7 180 -24 290 0 0 -1 0 1 0 1 0 0 3710.dat
1 7 210 -24 290 0 0 -1 0 1 0 1 0 0 3020.dat
0 STEP
1 7 80 -24 40 1 0 0 0 1 0 0 0 1 3024.dat
1 7 100 -24 70 0 0 -1 0 1 0 1 0 0 3710.dat
1 7 180 -24 60 0 0 -1 0 1 0 1 0 0 3623.dat
1 7 70 -24 80 0 0 -1 0 1 0 1 0 0 3021.dat
1 7 120 -24 70 0 0 -1 0 1 0 1 0 0 3023.dat
1 7 160 -24 70 0 0 -1 0 1 0 1 0 0 3023.dat
1 7 90 -24 120 1 0 0 0 1 0 0 0 1 3023.dat
0 STEP
1 7 200 -32 50 1 0 0 0 1 0 0 0 1 3021.dat
1 7 180 -32 80 1 0 0 0 1 0 0 0 1 3024.dat
1 7 220 -32 90 0 0 -1 0 1 0 1 0 0 3023.dat
1 7 190 -32 100 1 0 0 0 1 0 0 0 1 3023.dat
1 7 200 -48 120 1 0 0 0 1 0 0 0 1 3622.dat
1 7 180 -32 280 0 0 -1 0 1 0 1 0 0 3623.dat
1 7 200 -32 260 1 0 0 0 1 0 0 0 1 3024.dat
0 STEP
1 7 70 -32 260 1 0 0 0 1 0 0 0 1 3710.dat
1 7 230 -32 290 0 0 -1 0 1 0 1 0 0 3020.dat
1 7 50 -32 300 0 0 -1 0 1 0 1 0 0 3021.dat
1 7 100 -32 290 0 0 -1 0 1 0 1 0 0 3023.dat
1 7 90 -32 320 1 0 0 0 1 0 0 0 1 3023.dat
1 7 190 -32 320 1 0 0 0 1 0 0 0 1 3023.dat
0 STEP
1 7 80 -32 40 1 0 0 0 1 0 0 0 1 3623.dat
1 7 70 -32 60 1 0 0 0 1 0 0 0 1 3023.dat
1 7 110 -32 70 1 0 0 0 1 0 0 0 1 3022.dat
1 7 160 -48 80 0 0 -1 0 1 0 1 0 0 3622.dat
1 7 60 -32 80 1 0 0 0 1 0 0 0 1 3024.dat
1 7 90 -32 100 1 0 0 0 1 0 0 0 1 3710.dat
1 7 80 -32 120 1 0 0 0 1 0 0 0 1 3623.dat
0 STEP
1 7 60 -40 70 0 0 -1 0 1 0 1 0 0 3710.dat
1 7 90 -40 40 1 0 0 0 1 0 0 0 1 3023.dat
1 7 200 -40 40 1 0 0 0 1 0 0 0 1 3623.dat
1 7 120 -40 80 0 0 -1 0 1 0 1 0 0 3623.dat
1 7 100 -40 110 0 0 -1 0 1 0 1 0 0 3023.dat
1 7 180 -40 100 1 0 0 0 1 0 0 0 1 3024.dat
1 7 70 -40 120 1 0 0 0 1 0 0 0 1 3023.dat
0 STEP
0 ROTSTEP 0 180 0 REL
1 7 60 -40 260 1 0 0 0 1 0 0 0 1 3623.dat
1 7 100 -40 290 0 0 -1 0 1 0 1 0 0 3710.dat
1 7 40 -40 290 0 0 -1 0 1 0 1 0 0 3023.dat
1 7 50 -40 320 1 0 0 0 1 0 0 0 1 3023.dat
1 7 80 -40 330 0 0 -1 0 1 0 1 0 0 3023.dat
1 7 60 -40 340 1 0 0 0 1 0 0 0 1 3024.dat
0 STEP
0 ROTSTEP 0 90 0 REL
1 7 220 -40 80 0 0 -1 0 1 0 1 0 0 3623.dat
1 7 200 -40 260 1 0 0 0 1 0 0 0 1 3623.dat
1 7 240 -40 290 0 0 -1 0 1 0 1 0 0 3710.dat
1 7 120 -40 290 0 0 -1 0 1 0 1 0 0 3023.dat
1 7 170 -40 290 1 0 0 0 1 0 0 0 1 3022.dat
1 7 180 -40 320 1 0 0 0 1 0 0 0 1 3024.dat
1 7 210 -40 330 1 0 0 0 1 0 0 0 1 3022.dat
0 STEP
1 7 70 -64 240 1 0 0 0 1 0 0 0 1 3004.dat
1 7 70 -48 260 1 0 0 0 1 0 0 0 1 3710.dat
1 7 40 -48 290 0 0 -1 0 1 0 1 0 0 3023.dat
1 7 110 -48 290 1 0 0 0 1 0 0 0 1 3022.dat
1 7 70 -48 320 1 0 0 0 1 0 0 0 1 3710.dat
1 7 210 -48 330 1 0 0 0 1 0 0 0 1 3022.dat
1 7 70 -64 340 1 0 0 0 1 0 0 0 1 3004.dat
0 STEP
1 7 220 -48 70 0 0 -1 0 1 0 1 0 0 3710.dat
1 7 240 -48 70 0 0 -1 0 1 0 1 0 0 3023.dat
1 7 210 -48 240 1 0 0 0 1 0 0 0 1 3023.dat
1 7 180 -48 290 0 0 -1 0 1 0 1 0 0 3710.dat
1 7 220 -48 260 1 0 0 0 1 0 0 0 1 3623.dat
1 7 160 -64 290 0 0 -1 0 1 0 1 0 0 3004.dat
1 7 240 -48 300 0 0 -1 0 1 0 1 0 0 3623.dat
0 STEP
0 ROTSTEP 0 180 0 REL
1 7 60 -48 50 0 0 -1 0 1 0 1 0 0 3023.dat
1 7 90 -48 40 1 0 0 0 1 0 0 0 1 3023.dat
1 7 190 -48 40 1 0 0 0 1 0 0 0 1 3023.dat
1 7 40 -48 70 0 0 -1 0 1 0 1 0 0 3023.dat
1 7 120 -48 80 0 0 -1 0 1 0 1 0 0 3623.dat
1 7 60 -48 100 0 0 -1 0 1 0 1 0 0 3623.dat
1 7 90 -48 120 1 0 0 0 1 0 0 0 1 3023.dat
0 STEP
1 7 70 -56 260 1 0 0 0 1 0 0 0 1 3710.dat
1 7 40 -56 300 0 0 -1 0 1 0 1 0 0 3623.dat
1 7 120 -72 290 0 0 -1 0 1 0 1 0 0 3004.dat
1 7 240 -56 300 0 0 -1 0 1 0 1 0 0 3623.dat
1 7 100 -56 320 1 0 0 0 1 0 0 0 1 3024.dat
1 7 180 -56 320 1 0 0 0 1 0 0 0 1 3024.dat
1 7 210 -56 340 1 0 0 0 1 0 0 0 1 3023.dat
0 STEP
1 7 220 -56 60 0 0 -1 0 1 0 1 0 0 3623.dat
1 7 240 -56 70 0 0 -1 0 1 0 1 0 0 3023.dat
1 7 230 -56 100 1 0 0 0 1 0 0 0 1 3023.dat
1 7 200 -56 250 0 0 -1 0 1 0 1 0 0 3023.dat
1 7 220 -56 240 1 0 0 0 1 0 0 0 1 3024.dat
1 7 180 -56 260 1 0 0 0 1 0 0 0 1 3024.dat
1 7 230 -56 260 1 0 0 0 1 0 0 0 1 3023.dat
0 STEP
1 7 80 -56 40 1 0 0 0 1 0 0 0 1 3623.dat
1 7 120 -56 70 0 0 -1 0 1 0 1 0 0 3710.dat
1 7 180 -56 40 1 0 0 0 1 0 0 0 1 3623.dat
1 7 50 -56 80 0 0 -1 0 1 0 1 0 0 3021.dat
1 7 160 -56 80 0 0 -1 0 1 0 1 0 0 3623.dat
1 7 80 -56 120 1 0 0 0 1 0 0 0 1 3623.dat
1 7 200 -56 120 1 0 0 0 1 0 0 0 1 3623.dat
0 STEP
0 ROTSTEP 0 180 0 REL
1 7 40 -80 290 0 0 -1 0 1 0 1 0 0 3010.dat
1 7 100 -80 260 1 0 0 0 1 0 0 0 1 3005.dat
1 7 240 -80 290 0 0 -1 0 1 0 1 0 0 3010.dat
1 7 100 -80 320 1 0 0 0 1 0 0 0 1 3005.dat
1 7 180 -80 320 1 0 0 0 1 0 0 0 1 3005.dat
1 7 210 -64 340 1 0 0 0 1 0 0 0 1 3023.dat
0 STEP
1 7 190 -64 40 1 0 0 0 1 0 0 0 1 3710.dat
1 7 240 -80 80 0 0 -1 0 1 0 1 0 0 3622.dat
1 7 220 -64 110 0 0 -1 0 1 0 1 0 0 3023.dat
1 7 190 -64 120 1 0 0 0 1 0 0 0 1 3023.dat
1 7 140 -64 180 1 0 0 0 1 0 0 0 1 3623.dat
1 7 210 -80 240 1 0 0 0 1 0 0 0 1 3004.dat
1 7 180 -80 260 1 0 0 0 1 0 0 0 1 3005.dat
0 STEP
0 ROTSTEP 0 180 0 REL
1 7 90 -64 40 1 0 0 0 1 0 0 0 1 3710.dat
1 7 40 -80 80 0 0 -1 0 1 0 1 0 0 3622.dat
1 7 120 -64 80 0 0 -1 0 1 0 1 0 0 3623.dat
1 7 160 -64 80 0 0 -1 0 1 0 1 0 0 3623.dat
1 7 60 -64 110 0 0 -1 0 1 0 1 0 0 3023.dat
1 7 90 -64 120 1 0 0 0 1 0 0 0 1 3023.dat
1 7 140 -64 160 1 0 0 0 1 0 0 0 1 3024.dat
0 STEP
0 ROTSTEP 0 90 0 REL
1 7 70 -72 240 1 0 0 0 1 0 0 0 1 3023.dat
1 7 160 -72 290 0 0 -1 0 1 0 1 0 0 3023.dat
1 7 70 -88 340 -1 0 0 0 1 0 0 0 -1 3004.dat
1 7 210 -88 340 -1 0 0 0 1 0 0 0 -1 3004.dat
0 STEP
0 ROTSTEP 0 180 0 REL
1 7 190 -72 40 1 0 0 0 1 0 0 0 1 3710.dat
1 7 200 -72 120 1 0 0 0 1 0 0 0 1 3623.dat
1 7 180 -72 170 0 0 -1 0 1 0 1 0 0 3023.dat
1 7 130 -72 180 1 0 0 0 1 0 0 0 1 3710.dat
1 7 110 -72 200 1 0 0 0 1 0 0 0 1 3023.dat
1 7 160 -72 200 1 0 0 0 1 0 0 0 1 3623.dat
1 7 140 -72 220 1 0 0 0 1 0 0 0 1 3623.dat
0 STEP
1 7 80 -72 40 1 0 0 0 1 0 0 0 1 3623.dat
1 7 120 -72 60 0 0 -1 0 1 0 1 0 0 3623.dat
1 7 160 -72 110 0 0 -1 0 1 0 1 0 0 3666.dat
1 7 120 -72 110 0 0 -1 0 1 0 1 0 0 3023.dat
1 7 80 -72 120 1 0 0 0 1 0 0 0 1 3623.dat
1 7 130 -72 140 1 0 0 0 1 0 0 0 1 3023.dat
1 7 120 -72 160 1 0 0 0 1 0 0 0 1 3623.dat
0 STEP
1 7 80 -80 40 1 0 0 0 1 0 0 0 1 3623.dat
1 7 120 -80 70 0 0 -1 0 1 0 1 0 0 3710.dat
1 7 160 -80 70 0 0 -1 0 1 0 1 0 0 3710.dat
1 7 110 -80 120 1 0 0 0 1 0 0 0 1 3666.dat
1 7 180 -80 130 0 0 -1 0 1 0 1 0 0 3023.dat
1 7 210 -80 120 1 0 0 0 1 0 0 0 1 3023.dat
1 7 130 -80 140 1 0 0 0 1 0 0 0 1 3710.dat
0 STEP
1 7 80 -80 180 0 0 -1 0 1 0 1 0 0 3623.dat
1 7 70 -80 240 1 0 0 0 1 0 0 0 1 3023.dat
1 7 120 -80 290 0 0 -1 0 1 0 1 0 0 3023.dat
1 7 160 -80 290 0 0 -1 0 1 0 1 0 0 3023.dat
0 STEP
1 7 200 -80 40 1 0 0 0 1 0 0 0 1 3623.dat
1 7 110 -80 190 0 0 -1 0 1 0 1 0 0 3020.dat
1 7 170 -80 170 1 0 0 0 1 0 0 0 1 3020.dat
1 7 150 -80 220 0 0 -1 0 1 0 1 0 0 3021.dat
1 7 180 -80 210 0 0 -1 0 1 0 1 0 0 3023.dat
1 7 200 -80 200 1 0 0 0 1 0 0 0 1 3024.dat
1 7 120 -80 240 1 0 0 0 1 0 0 0 1 3024.dat
0 STEP
1 7 240 -88 260 0 0 -1 0 1 0 1 0 0 3623.dat
1 7 160 -88 280 0 0 -1 0 1 0 1 0 0 3623.dat
1 7 180 -88 260 1 0 0 0 1 0 0 0 1 3024.dat
1 7 240 -88 310 0 0 -1 0 1 0 1 0 0 3023.dat
1 7 40 -88 320 1 0 0 0 1 0 0 0 1 3024.dat
1 7 100 -88 320 1 0 0 0 1 0 0 0 1 3024.dat
1 7 180 -88 320 1 0 0 0 1 0 0 0 1 3024.dat
0 STEP
1 7 200 -88 40 1 0 0 0 1 0 0 0 1 3623.dat
1 7 240 -88 80 0 0 -1 0 1 0 1 0 0 3623.dat
1 7 180 -88 150 0 0 -1 0 1 0 1 0 0 3710.dat
1 7 210 -88 130 1 0 0 0 1 0 0 0 1 3022.dat
1 7 200 -88 190 0 0 -1 0 1 0 1 0 0 3710.dat
1 7 150 -88 210 1 0 0 0 1 0 0 0 1 3020.dat
1 7 170 -88 240 1 0 0 0 1 0 0 0 1 3666.dat
0 STEP
1 7 40 -88 80 0 0 -1 0 1 0 1 0 0 3623.dat
1 7 80 -88 170 0 0 -1 0 1 0 1 0 0 3666.dat
1 7 100 -88 200 0 0 -1 0 1 0 1 0 0 3623.dat
1 7 40 -88 270 0 0 -1 0 1 0 1 0 0 3710.dat
1 7 80 -88 240 1 0 0 0 1 0 0 0 1 3623.dat
1 7 120 -88 260 1 0 0 0 1 0 0 0 1 3623.dat
1 7 120 -88 290 0 0 -1 0 1 0 1 0 0 3023.dat
0 STEP
1 7 70 -96 240 1 0 0 0 1 0 0 0 1 3710.dat
1 7 120 -96 260 0 0 -1 0 1 0 1 0 0 3623.dat
1 7 140 -96 250 0 0 -1 0 1 0 1 0 0 3023.dat
1 7 100 -96 260 1 0 0 0 1 0 0 0 1 3024.dat
1 7 170 -96 260 1 0 0 0 1 0 0 0 1 3023.dat
1 7 150 -96 280 1 0 0 0 1 0 0 0 1 3023.dat
1 7 140 -96 300 1 0 0 0 1 0 0 0 1 3623.dat
0 STEP
1 7 90 -88 40 1 0 0 0 1 0 0 0 1 3710.dat
1 7 160 -88 90 0 0 -1 0 1 0 1 0 0 3666.dat
1 7 120 -88 80 0 0 -1 0 1 0 1 0 0 3623.dat
1 7 140 -88 120 0 0 -1 0 1 0 1 0 0 3623.dat
1 7 60 -88 130 0 0 -1 0 1 0 1 0 0 3023.dat
1 7 110 -88 140 0 0 -1 0 1 0 1 0 0 3021.dat
1 7 160 -88 160 1 0 0 0 1 0 0 0 1 3024.dat
0 STEP
0 ROTSTEP 0 270 0 REL
1 7 240 -96 270 0 0 -1 0 1 0 1 0 0 3710.dat
1 7 40 -96 290 0 0 -1 0 1 0 1 0 0 3710.dat
1 7 110 -96 320 1 0 0 0 1 0 0 0 1 3023.dat
1 7 170 -96 320 1 0 0 0 1 0 0 0 1 3023.dat
1 7 240 -96 320 1 0 0 0 1 0 0 0 1 3024.dat
1 7 70 -112 340 1 0 0 0 1 0 0 0 1 3004.dat
1 7 210 -112 340 1 0 0 0 1 0 0 0 1 3004.dat
0 STEP
0 ROTSTEP 0 180 0 REL
1 7 40 -112 70 0 0 1 0 1 0 -1 0 0 3004.dat
1 7 40 -96 110 0 0 -1 0 1 0 1 0 0 3023.dat
1 7 70 -96 150 0 0 -1 0 1 0 1 0 0 3020.dat
1 7 100 -96 140 1 0 0 0 1 0 0 0 1 3024.dat
1 7 60 -96 210 0 0 -1 0 1 0 1 0 0 3023.dat
1 7 80 -96 200 1 0 0 0 1 0 0 0 1 3024.dat
1 7 90 -96 220 1 0 0 0 1 0 0 0 1 3023.dat
0 STEP
1 7 50 -104 170 1 0 0 0 1 0 0 0 1 3022.dat
1 7 80 -104 190 0 0 -1 0 1 0 1 0 0 3710.dat
1 7 50 -104 220 0 0 -1 0 1 0 1 0 0 3021.dat
1 7 100 -104 240 1 0 0 0 1 0 0 0 1 3024.dat
1 7 40 -104 290 0 0 -1 0 1 0 1 0 0 3710.dat
1 7 140 -104 270 1 0 0 0 1 0 0 0 1 3021.dat
1 7 140 -104 300 1 0 0 0 1 0 0 0 1 3623.dat
0 STEP
1 7 240 -112 90 0 0 -1 0 1 0 1 0 0 3010.dat
1 7 210 -96 150 0 0 -1 0 1 0 1 0 0 3020.dat
1 7 180 -96 140 1 0 0 0 1 0 0 0 1 3024.dat
1 7 200 -96 210 0 0 -1 0 1 0 1 0 0 3023.dat
1 7 220 -96 220 0 0 -1 0 1 0 1 0 0 3623.dat
1 7 180 -96 220 1 0 0 0 1 0 0 0 1 3024.dat
1 7 180 -96 240 1 0 0 0 1 0 0 0 1 3623.dat
0 STEP
1 7 80 -96 40 1 0 0 0 1 0 0 0 1 3623.dat
1 7 120 -96 60 0 0 -1 0 1 0 1 0 0 3623.dat
1 7 190 -96 40 1 0 0 0 1 0 0 0 1 3710.dat
1 7 160 -96 60 1 0 0 0 1 0 0 0 1 3024.dat
1 7 150 -96 80 1 0 0 0 1 0 0 0 1 3023.dat
1 7 140 -96 100 1 0 0 0 1 0 0 0 1 3623.dat
1 7 140 -96 120 1 0 0 0 1 0 0 0 1 3024.dat
0 STEP
0 ROTSTEP 0 180 0 REL
1 7 240 -104 290 0 0 -1 0 1 0 1 0 0 3710.dat
1 7 110 -104 320 1 0 0 0 1 0 0 0 1 3023.dat
1 7 170 -104 320 1 0 0 0 1 0 0 0 1 3023.dat
0 STEP
1 7 190 -104 40 1 0 0 0 1 0 0 0 1 3710.dat
1 7 220 -104 120 1 0 0 0 1 0 0 0 1 3024.dat
1 7 210 -104 170 0 0 -1 0 1 0 1 0 0 3020.dat
1 7 240 -104 180 0 0 -1 0 1 0 1 0 0 3623.dat
1 7 220 -104 220 1 0 0 0 1 0 0 0 1 3623.dat
1 7 180 -104 240 1 0 0 0 1 0 0 0 1 3024.dat
1 7 230 -104 240 1 0 0 0 1 0 0 0 1 3023.dat
0 STEP
1 7 220 -112 170 0 0 -1 0 1 0 1 0 0 3710.dat
1 7 240 -112 160 0 0 -1 0 1 0 1 0 0 3623.dat
1 7 240 -112 250 0 0 -1 0 1 0 1 0 0 3666.dat
1 7 220 -112 220 1 0 0 0 1 0 0 0 1 3024.dat
1 7 140 -112 290 0 0 -1 0 1 0 1 0 0 3023.dat
1 7 150 -112 320 1 0 0 0 1 0 0 0 1 3710.dat
1 7 240 -112 320 1 0 0 0 1 0 0 0 1 3024.dat
0 STEP
0 ROTSTEP 0 180 0 REL
1 7 60 -120 40 1 0 0 0 1 0 0 0 1 3005.dat
1 7 100 -104 40 1 0 0 0 1 0 0 0 1 3623.dat
1 7 140 -104 70 1 0 0 0 1 0 0 0 1 3021.dat
1 7 40 -104 100 1 0 0 0 1 0 0 0 1 3024.dat
1 7 140 -104 100 1 0 0 0 1 0 0 0 1 3024.dat
1 7 50 -104 120 1 0 0 0 1 0 0 0 1 3023.dat
1 7 70 -104 140 1 0 0 0 1 0 0 0 1 3023.dat
0 STEP
1 7 100 -112 40 1 0 0 0 1 0 0 0 1 3623.dat
1 7 160 -112 50 0 0 -1 0 1 0 1 0 0 3023.dat
1 7 200 -112 40 1 0 0 0 1 0 0 0 1 3623.dat
1 7 130 -112 60 1 0 0 0 1 0 0 0 1 3023.dat
1 7 140 -112 80 1 0 0 0 1 0 0 0 1 3024.dat
1 7 40 -112 130 0 0 -1 0 1 0 1 0 0 3710.dat
1 7 60 -112 150 0 0 -1 0 1 0 1 0 0 3023.dat
0 STEP
1 7 50 -112 200 0 0 -1 0 1 0 1 0 0 3021.dat
1 7 40 -112 270 0 0 -1 0 1 0 1 0 0 3710.dat
1 7 40 -112 320 1 0 0 0 1 0 0 0 1 3024.dat
1 7 100 -112 320 1 0 0 0 1 0 0 0 1 3024.dat
0 STEP
1 7 90 -136 40 1 0 0 0 1 0 0 0 1 3004.dat
1 7 120 -120 40 1 0 0 0 1 0 0 0 1 3024.dat
1 7 170 -120 40 1 0 0 0 1 0 0 0 1 3710.dat
1 7 220 -120 40 1 0 0 0 1 0 0 0 1 3024.dat
1 7 140 -120 60 1 0 0 0 1 0 0 0 1 3024.dat
1 7 240 -120 60 1 0 0 0 1 0 0 0 1 3024.dat
1 7 240 -136 80 1 0 0 0 1 0 0 0 1 3005.dat
0 STEP
1 7 40 -136 70 0 0 -1 0 1 0 1 0 0 3004.dat
1 7 40 -120 150 0 0 -1 0 1 0 1 0 0 3666.dat
1 7 60 -120 140 1 0 0 0 1 0 0 0 1 3024.dat
1 7 40 -120 270 0 0 -1 0 1 0 1 0 0 3666.dat
1 7 140 -120 300 1 0 0 0 1 0 0 0 1 3024.dat
1 7 120 -120 320 1 0 0 0 1 0 0 0 1 3623.dat
1 7 80 -136 340 1 0 0 0 1 0 0 0 1 3622.dat
0 STEP
0 ROTSTEP 0 270 0 REL
1 7 240 -120 150 0 0 -1 0 1 0 1 0 0 3666.dat
1 7 220 -120 140 1 0 0 0 1 0 0 0 1 3024.dat
1 7 240 -120 270 0 0 -1 0 1 0 1 0 0 3666.dat
1 7 170 -120 320 1 0 0 0 1 0 0 0 1 3023.dat
1 7 200 -120 340 1 0 0 0 1 0 0 0 1 3623.dat
0 STEP
1 7 60 -144 50 0 0 -1 0 1 0 1 0 0 3004.dat
1 7 120 -128 40 1 0 0 0 1 0 0 0 1 3024.dat
1 7 140 -128 50 0 0 -1 0 1 0 1 0 0 3023.dat
1 7 180 -128 40 1 0 0 0 1 0 0 0 1 3623.dat
1 7 220 -128 50 0 0 -1 0 1 0 1 0 0 3023.dat
1 7 240 -128 60 1 0 0 0 1 0 0 0 1 3024.dat
1 7 240 -128 130 0 0 -1 0 1 0 1 0 0 3710.dat
0 STEP
1 7 40 -128 120 0 0 -1 0 1 0 1 0 0 3623.dat
1 7 40 -128 170 0 0 -1 0 1 0 1 0 0 3023.dat
1 7 240 -128 250 0 0 -1 0 1 0 1 0 0 3460.dat
1 7 40 -128 220 0 0 -1 0 1 0 1 0 0 3623.dat
1 7 40 -128 290 0 0 -1 0 1 0 1 0 0 3710.dat
1 7 100 -128 320 1 0 0 0 1 0 0 0 1 3024.dat
1 7 130 -128 330 1 0 0 0 1 0 0 0 1 3022.dat
1 7 170 -128 320 1 0 0 0 1 0 0 0 1 3023.dat
1 7 190 -128 340 1 0 0 0 1 0 0 0 1 3710.dat
0 STEP
1 7 170 -136 40 1 0 0 0 1 0 0 0 1 3666.dat
1 7 230 -136 60 1 0 0 0 1 0 0 0 1 3023.dat
1 7 240 -136 110 0 0 -1 0 1 0 1 0 0 3023.dat
1 7 240 -136 160 0 0 -1 0 1 0 1 0 0 3623.dat
1 7 240 -136 210 0 0 -1 0 1 0 1 0 0 3023.dat
1 7 240 -136 260 0 0 -1 0 1 0 1 0 0 3623.dat
1 7 240 -136 310 0 0 -1 0 1 0 1 0 0 3023.dat
0 STEP
0 ROTSTEP 0 180 0 REL
1 7 40 -136 110 0 0 -1 0 1 0 1 0 0 3023.dat
1 7 40 -136 160 0 0 -1 0 1 0 1 0 0 3623.dat
1 7 40 -136 230 0 0 -1 0 1 0 1 0 0 3710.dat
1 7 40 -136 300 0 0 -1 0 1 0 1 0 0 3623.dat
1 7 140 -136 330 1 0 0 0 1 0 0 0 1 3021.dat
1 7 200 -136 340 1 0 0 0 1 0 0 0 1 3623.dat
0 STEP
0 ROTSTEP 0 180 0 REL
1 7 100 -144 40 1 0 0 0 1 0 0 0 1 3623.dat
1 7 170 -144 40 1 0 0 0 1 0 0 0 1 3710.dat
1 7 220 -144 50 0 0 -1 0 1 0 1 0 0 3023.dat
1 7 40 -160 80 1 0 0 0 1 0 0 0 1 3005.dat
1 7 240 -160 80 1 0 0 0 1 0 0 0 1 3005.dat
1 7 240 -144 100 1 0 0 0 1 0 0 0 1 3024.dat
1 7 240 -144 190 0 0 -1 0 1 0 1 0 0 3460.dat
0 STEP
0 ROTSTEP 0 180 0 REL
1 7 40 -144 130 0 0 -1 0 1 0 1 0 0 3710.dat
1 7 40 -144 200 0 0 -1 0 1 0 1 0 0 3623.dat
1 7 40 -144 270 0 0 -1 0 1 0 1 0 0 3710.dat
1 7 240 -144 300 0 0 -1 0 1 0 1 0 0 3623.dat
1 7 40 -144 320 1 0 0 0 1 0 0 0 1 3024.dat
1 7 70 -144 340 1 0 0 0 1 0 0 0 1 3023.dat
1 7 120 -144 340 1 0 0 0 1 0 0 0 1 3623.dat
1 7 190 -144 340 1 0 0 0 1 0 0 0 1 3710.dat
0 STEP
1 7 80 -152 40 1 0 0 0 1 0 0 0 1 3024.dat
1 7 150 -152 40 1 0 0 0 1 0 0 0 1 3666.dat
1 7 220 -152 50 0 0 -1 0 1 0 1 0 0 3023.dat
1 7 60 -152 50 0 0 1 0 1 0 -1 0 0 3023.dat
1 7 40 -168 150 0 0 -1 0 1 0 1 0 0 3009.dat
1 7 240 -152 150 0 0 -1 0 1 0 1 0 0 3666.dat
1 7 40 -168 270 0 0 -1 0 1 0 1 0 0 3009.dat
0 STEP
1 7 240 -152 270 0 0 -1 0 1 0 1 0 0 3666.dat
1 7 80 -152 340 1 0 0 0 1 0 0 0 1 3623.dat
1 7 120 -152 350 0 0 -1 0 1 0 1 0 0 3023.dat
1 7 160 -152 340 1 0 0 0 1 0 0 0 1 3623.dat
1 7 210 -152 340 1 0 0 0 1 0 0 0 1 3023.dat
1 7 150 -152 360 1 0 0 0 1 0 0 0 1 3023.dat
0 STEP
1 7 240 -160 250 0 0 -1 0 1 0 1 0 0 3460.dat
1 7 60 -160 340 1 0 0 0 1 0 0 0 1 3024.dat
1 7 110 -160 340 1 0 0 0 1 0 0 0 1 3710.dat
1 7 160 -160 340 1 0 0 0 1 0 0 0 1 3024.dat
1 7 180 -160 350 0 0 -1 0 1 0 1 0 0 3023.dat
1 7 210 -160 340 1 0 0 0 1 0 0 0 1 3023.dat
1 7 130 -160 360 1 0 0 0 1 0 0 0 1 3710.dat
0 STEP
0 ROTSTEP 0 180 0 REL
1 7 130 -160 20 1 0 0 0 1 0 0 0 1 3023.dat
1 7 160 -160 30 0 0 -1 0 1 0 1 0 0 3023.dat
1 7 110 -160 40 1 0 0 0 1 0 0 0 1 3710.dat
1 7 200 -160 40 1 0 0 0 1 0 0 0 1 3623.dat
1 7 60 -160 50 0 0 1 0 1 0 -1 0 0 3023.dat
1 7 220 -176 60 1 0 0 0 1 0 0 0 1 3005.dat
1 7 240 -160 130 0 0 -1 0 1 0 1 0 0 3710.dat
0 STEP
1 7 140 -168 20 1 0 0 0 1 0 0 0 1 3623.dat
1 7 100 -168 40 1 0 0 0 1 0 0 0 1 3623.dat
1 7 170 -168 40 1 0 0 0 1 0 0 0 1 3710.dat
1 7 60 -184 60 1 0 0 0 1 0 0 0 1 3005.dat
1 7 40 -184 80 1 0 0 0 1 0 0 0 1 3005.dat
1 7 240 -184 80 1 0 0 0 1 0 0 0 1 3005.dat
1 7 240 -168 120 0 0 -1 0 1 0 1 0 0 3623.dat
0 STEP
1 7 240 -168 190 0 0 -1 0 1 0 1 0 0 3710.dat
1 7 240 -168 260 0 0 -1 0 1 0 1 0 0 3623.dat
1 7 240 -168 310 0 0 -1 0 1 0 1 0 0 3023.dat
1 7 70 -168 340 1 0 0 0 1 0 0 0 1 3023.dat
1 7 100 -168 350 0 0 -1 0 1 0 1 0 0 3023.dat
1 7 200 -168 340 1 0 0 0 1 0 0 0 1 3623.dat
1 7 150 -168 360 1 0 0 0 1 0 0 0 1 3710.dat
0 STEP
0 ROTSTEP 0 180 0 REL
1 7 40 -176 240 1 0 0 0 1 0 0 0 1 3024.dat
1 7 40 -176 290 0 0 -1 0 1 0 1 0 0 3710.dat
1 7 240 -176 300 0 0 -1 0 1 0 1 0 0 3623.dat
1 7 70 -176 340 1 0 0 0 1 0 0 0 1 3023.dat
1 7 210 -176 340 1 0 0 0 1 0 0 0 1 3023.dat
1 7 110 -176 360 1 0 0 0 1 0 0 0 1 3023.dat
1 7 160 -176 360 1 0 0 0 1 0 0 0 1 3623.dat
0 STEP
0 ROTSTEP 0 180 0 REL
1 7 140 -176 20 1 0 0 0 1 0 0 0 1 3623.dat
1 7 90 -192 40 1 0 0 0 1 0 0 0 1 3004.dat
1 7 190 -176 40 1 0 0 0 1 0 0 0 1 3023.dat
1 7 40 -176 100 1 0 0 0 1 0 0 0 1 3024.dat
1 7 240 -176 120 0 0 -1 0 1 0 1 0 0 3623.dat
1 7 40 -176 170 0 0 -1 0 1 0 1 0 0 3666.dat
1 7 240 -176 210 0 0 -1 0 1 0 1 0 0 3666.dat
0 STEP
0 ROTSTEP 0 180 0 REL
1 7 40 -184 120 0 0 -1 0 1 0 1 0 0 3623.dat
1 7 40 -184 190 0 0 -1 0 1 0 1 0 0 3710.dat
1 7 40 -184 260 0 0 -1 0 1 0 1 0 0 3623.dat
1 7 40 -184 310 0 0 -1 0 1 0 1 0 0 3023.dat
1 7 60 -184 330 0 0 -1 0 1 0 1 0 0 3023.dat
1 7 80 -184 340 1 0 0 0 1 0 0 0 1 3024.dat
1 7 130 -184 360 1 0 0 0 1 0 0 0 1 3710.dat
0 STEP
1 7 60 -208 60 1 0 0 0 1 0 0 0 1 3005.dat
1 7 50 -192 80 -1 0 0 0 1 0 0 0 -1 3023.dat
1 7 40 -192 110 0 0 -1 0 1 0 1 0 0 3023.dat
1 7 40 -192 160 0 0 -1 0 1 0 1 0 0 3623.dat
1 7 40 -192 250 0 0 -1 0 1 0 1 0 0 3666.dat
1 7 50 -192 320 1 0 0 0 1 0 0 0 1 3023.dat
1 7 70 -192 340 1 0 0 0 1 0 0 0 1 3023.dat
0 STEP
0 ROTSTEP 0 180 0 REL
1 7 130 -184 20 1 0 0 0 1 0 0 0 1 3710.dat
1 7 180 -184 20 1 0 0 0 1 0 0 0 1 3024.dat
1 7 190 -184 40 1 0 0 0 1 0 0 0 1 3023.dat
1 7 220 -184 60 1 0 0 0 1 0 0 0 1 3024.dat
1 7 240 -184 110 0 0 -1 0 1 0 1 0 0 3023.dat
1 7 240 -184 160 0 0 -1 0 1 0 1 0 0 3623.dat
1 7 240 -184 230 0 0 -1 0 1 0 1 0 0 3710.dat
0 STEP
1 7 140 -192 0 1 0 0 0 1 0 0 0 1 3024.dat
1 7 130 -192 20 1 0 0 0 1 0 0 0 1 3710.dat
1 7 180 -192 30 0 0 -1 0 1 0 1 0 0 3023.dat
1 7 200 -192 40 1 0 0 0 1 0 0 0 1 3024.dat
1 7 220 -208 70 0 0 -1 0 1 0 1 0 0 3004.dat
1 7 240 -192 80 1 0 0 0 1 0 0 0 1 3024.dat
1 7 240 -192 150 0 0 -1 0 1 0 1 0 0 3666.dat
0 STEP
1 7 140 -200 10 0 0 -1 0 1 0 1 0 0 3023.dat
1 7 110 -200 20 1 0 0 0 1 0 0 0 1 3023.dat
1 7 170 -200 20 1 0 0 0 1 0 0 0 1 3023.dat
1 7 90 -216 40 1 0 0 0 1 0 0 0 1 3004.dat
1 7 190 -200 40 1 0 0 0 1 0 0 0 1 3023.dat
1 7 40 -200 100 0 0 -1 0 1 0 1 0 0 3623.dat
1 7 60 -200 80 1 0 0 0 1 0 0 0 1 3024.dat
0 STEP
1 7 240 -184 300 0 0 -1 0 1 0 1 0 0 3623.dat
1 7 220 -184 330 0 0 -1 0 1 0 1 0 0 3023.dat
1 7 200 -184 340 1 0 0 0 1 0 0 0 1 3024.dat
1 7 180 -184 360 1 0 0 0 1 0 0 0 1 3024.dat
0 STEP
1 7 240 -192 270 0 0 -1 0 1 0 1 0 0 3666.dat
1 7 220 -192 330 0 0 -1 0 1 0 1 0 0 3023.dat
1 7 200 -192 340 1 0 0 0 1 0 0 0 1 3024.dat
1 7 110 -192 360 1 0 0 0 1 0 0 0 1 3023.dat
1 7 160 -192 360 1 0 0 0 1 0 0 0 1 3623.dat
0 STEP
1 7 240 -200 130 0 0 -1 0 1 0 1 0 0 3666.dat
1 7 240 -200 250 0 0 -1 0 1 0 1 0 0 3666.dat
1 7 220 -200 320 1 0 0 0 1 0 0 0 1 3024.dat
1 7 70 -200 340 1 0 0 0 1 0 0 0 1 3023.dat
1 7 210 -200 340 1 0 0 0 1 0 0 0 1 3023.dat
1 7 120 -200 360 1 0 0 0 1 0 0 0 1 3623.dat
1 7 170 -200 360 1 0 0 0 1 0 0 0 1 3023.dat
0 STEP
1 7 130 -208 20 1 0 0 0 1 0 0 0 1 3710.dat
1 7 180 -208 20 1 0 0 0 1 0 0 0 1 3024.dat
1 7 190 -208 40 1 0 0 0 1 0 0 0 1 3023.dat
1 7 60 -208 90 0 0 -1 0 1 0 1 0 0 3023.dat
1 7 230 -208 120 0 0 -1 0 1 0 1 0 0 3021.dat
1 7 220 -208 160 1 0 0 0 1 0 0 0 1 3024.dat
1 7 240 -208 180 0 0 -1 0 1 0 1 0 0 3623.dat
0 STEP
1 7 140 -216 30 1 0 0 0 1 0 0 0 1 3021.dat
1 7 180 -216 40 1 0 0 0 1 0 0 0 1 3024.dat
1 7 200 -216 50 0 0 -1 0 1 0 1 0 0 3023.dat
1 7 70 -216 60 1 0 0 0 1 0 0 0 1 3023.dat
1 7 220 -216 70 0 0 -1 0 1 0 1 0 0 3023.dat
1 7 230 -216 110 1 0 0 0 1 0 0 0 1 3022.dat
1 7 230 -216 160 0 0 -1 0 1 0 1 0 0 3021.dat
0 STEP
0 ROTSTEP 0 90 0 REL
1 7 40 -200 190 0 0 -1 0 1 0 1 0 0 3666.dat
1 7 40 -200 280 0 0 -1 0 1 0 1 0 0 3623.dat
1 7 60 -200 320 1 0 0 0 1 0 0 0 1 3024.dat
0 STEP
0 ROTSTEP 0 180 0 REL
1 7 240 -208 250 0 0 -1 0 1 0 1 0 0 3710.dat
1 7 240 -208 300 1 0 0 0 1 0 0 0 1 3024.dat
1 7 220 -224 320 1 0 0 0 1 0 0 0 1 3005.dat
1 7 200 -224 340 1 0 0 0 1 0 0 0 1 3005.dat
1 7 160 -208 360 1 0 0 0 1 0 0 0 1 3623.dat
0 STEP
0 ROTSTEP 0 180 0 REL
1 7 40 -208 100 1 0 0 0 1 0 0 0 1 3024.dat
1 7 50 -208 140 0 0 -1 0 1 0 1 0 0 3021.dat
1 7 40 -208 200 0 0 -1 0 1 0 1 0 0 3623.dat
1 7 40 -208 270 0 0 -1 0 1 0 1 0 0 3710.dat
1 7 60 -224 320 1 0 0 0 1 0 0 0 1 3005.dat
1 7 80 -224 340 1 0 0 0 1 0 0 0 1 3005.dat
1 7 110 -208 360 1 0 0 0 1 0 0 0 1 3023.dat
0 STEP
0 ROTSTEP 0 180 0 REL
1 7 240 -216 230 0 0 -1 0 1 0 1 0 0 3710.dat
1 7 240 -216 280 1 0 0 0 1 0 0 0 1 3024.dat
1 7 230 -216 300 1 0 0 0 1 0 0 0 1 3023.dat
1 7 150 -216 360 1 0 0 0 1 0 0 0 1 3710.dat
0 STEP
0 ROTSTEP 0 180 0 REL
1 7 60 -216 100 0 0 -1 0 1 0 1 0 0 3623.dat
1 7 40 -216 110 0 0 -1 0 1 0 1 0 0 3023.dat
1 7 50 -216 160 0 0 -1 0 1 0 1 0 0 3021.dat
1 7 40 -216 230 0 0 -1 0 1 0 1 0 0 3710.dat
1 7 40 -216 280 1 0 0 0 1 0 0 0 1 3024.dat
1 7 50 -216 300 1 0 0 0 1 0 0 0 1 3023.dat
1 7 100 -216 360 1 0 0 0 1 0 0 0 1 3024.dat
0 STEP
1 7 140 -224 20 1 0 0 0 1 0 0 0 1 3623.dat
1 7 130 -224 40 1 0 0 0 1 0 0 0 1 3666.dat
1 7 200 -224 50 0 0 -1 0 1 0 1 0 0 3023.dat
1 7 70 -224 60 1 0 0 0 1 0 0 0 1 3023.dat
1 7 220 -224 110 0 0 -1 0 1 0 1 0 0 3666.dat
1 7 60 -224 130 0 0 -1 0 1 0 1 0 0 3666.dat
1 7 40 -224 180 1 0 0 0 1 0 0 0 1 3024.dat
0 STEP
0 ROTSTEP 0 180 0 REL
1 7 230 -224 190 1 0 0 0 1 0 0 0 1 3022.dat
1 7 220 -224 220 1 0 0 0 1 0 0 0 1 3024.dat
1 7 240 -224 240 0 0 -1 0 1 0 1 0 0 3623.dat
1 7 50 -224 290 1 0 0 0 1 0 0 0 1 3022.dat
1 7 230 -224 290 1 0 0 0 1 0 0 0 1 3022.dat
1 7 110 -224 360 1 0 0 0 1 0 0 0 1 3023.dat
1 7 160 -224 360 1 0 0 0 1 0 0 0 1 3623.dat
0 STEP
0 ROTSTEP 0 180 0 REL
1 7 50 -224 200 1 0 0 0 1 0 0 0 1 3023.dat
1 7 40 -224 240 0 0 -1 0 1 0 1 0 0 3623.dat
1 7 60 -224 220 1 0 0 0 1 0 0 0 1 3024.dat
0 STEP
1 7 60 -232 180 1 0 0 0 1 0 0 0 1 3024.dat
1 7 50 -232 220 0 0 -1 0 1 0 1 0 0 3021.dat
1 7 50 -232 270 1 0 0 0 1 0 0 0 1 3022.dat
1 7 60 -232 310 0 0 -1 0 1 0 1 0 0 3023.dat
1 7 80 -232 330 0 0 -1 0 1 0 1 0 0 3023.dat
1 7 100 -248 350 0 0 -1 0 1 0 1 0 0 3004.dat
0 STEP
0 ROTSTEP 0 270 0 REL
1 7 220 -232 130 0 0 -1 0 1 0 1 0 0 3666.dat
1 7 230 -232 230 0 0 -1 0 1 0 1 0 0 3020.dat
1 7 220 -232 300 0 0 -1 0 1 0 1 0 0 3623.dat
1 7 240 -232 280 1 0 0 0 1 0 0 0 1 3024.dat
1 7 200 -232 320 1 0 0 0 1 0 0 0 1 3024.dat
1 7 190 -232 340 1 0 0 0 1 0 0 0 1 3023.dat
1 7 150 -232 360 1 0 0 0 1 0 0 0 1 3710.dat
0 STEP
1 7 220 -240 270 0 0 -1 0 1 0 1 0 0 3666.dat
1 7 240 -240 250 0 0 -1 0 1 0 1 0 0 3023.dat
1 7 200 -240 330 0 0 -1 0 1 0 1 0 0 3023.dat
1 7 180 -256 350 0 0 -1 0 1 0 1 0 0 3004.dat
1 7 140 -240 370 1 0 0 0 1 0 0 0 1 3021.dat
0 STEP
1 7 100 -232 50 0 0 -1 0 1 0 1 0 0 3023.dat
1 7 140 -232 40 1 0 0 0 1 0 0 0 1 3623.dat
1 7 180 -232 50 0 0 -1 0 1 0 1 0 0 3023.dat
1 7 80 -232 70 0 0 -1 0 1 0 1 0 0 3023.dat
1 7 200 -232 70 0 0 -1 0 1 0 1 0 0 3023.dat
1 7 60 -232 80 1 0 0 0 1 0 0 0 1 3024.dat
1 7 60 -232 130 0 0 -1 0 1 0 1 0 0 3710.dat
0 STEP
1 7 110 -240 40 1 0 0 0 1 0 0 0 1 3023.dat
1 7 160 -240 50 1 0 0 0 1 0 0 0 1 3021.dat
1 7 100 -240 60 1 0 0 0 1 0 0 0 1 3623.dat
1 7 200 -240 70 0 0 -1 0 1 0 1 0 0 3023.dat
1 7 220 -240 80 1 0 0 0 1 0 0 0 1 3024.dat
1 7 210 -240 100 1 0 0 0 1 0 0 0 1 3023.dat
1 7 220 -240 120 1 0 0 0 1 0 0 0 1 3024.dat
0 STEP
1 7 70 -240 110 0 0 -1 0 1 0 1 0 0 3020.dat
1 7 200 -240 140 0 0 -1 0 1 0 1 0 0 3623.dat
1 7 220 -240 170 0 0 -1 0 1 0 1 0 0 3710.dat
1 7 70 -240 160 1 0 0 0 1 0 0 0 1 3023.dat
1 7 60 -240 250 0 0 -1 0 1 0 1 0 0 3460.dat
1 7 40 -240 250 0 0 -1 0 1 0 1 0 0 3023.dat
1 7 80 -240 330 0 0 -1 0 1 0 1 0 0 3023.dat
0 STEP
1 7 70 -248 100 1 0 0 0 1 0 0 0 1 3023.dat
1 7 60 -248 190 0 0 -1 0 1 0 1 0 0 3460.dat
1 7 80 -248 150 0 0 -1 0 1 0 1 0 0 3710.dat
1 7 220 -248 170 0 0 -1 0 1 0 1 0 0 3666.dat
1 7 220 -248 270 0 0 -1 0 1 0 1 0 0 3710.dat
1 7 60 -248 290 0 0 -1 0 1 0 1 0 0 3023.dat
1 7 80 -264 310 0 0 -1 0 1 0 1 0 0 3004.dat
0 STEP
0 ROTSTEP 0 270 0 REL
1 7 200 -248 310 0 0 -1 0 1 0 1 0 0 3023.dat
1 7 120 -248 410 0 0 -1 0 1 0 1 0 0 3666.dat
1 7 150 -248 380 0 0 -1 0 1 0 1 0 0 3021.dat
1 7 100 -248 400 1 0 0 0 1 0 0 0 1 3024.dat
1 7 180 -248 400 1 0 0 0 1 0 0 0 1 3024.dat
1 7 90 -248 430 1 0 0 0 1 0 0 0 1 3022.dat
1 7 140 -248 440 0 0 -1 0 1 0 1 0 0 3623.dat
1 7 180 -248 430 1 0 0 0 1 0 0 0 1 3021.dat
1 7 160 -248 460 1 0 0 0 1 0 0 0 1 3024.dat
0 STEP
0 ROTSTEP 0 90 0 REL
1 7 140 -248 40 1 0 0 0 1 0 0 0 1 3623.dat
1 7 90 -248 70 1 0 0 0 1 0 0 0 1 3022.dat
1 7 150 -248 60 1 0 0 0 1 0 0 0 1 3710.dat
1 7 200 -248 60 1 0 0 0 1 0 0 0 1 3024.dat
1 7 190 -248 80 1 0 0 0 1 0 0 0 1 3023.dat
1 7 210 -248 100 1 0 0 0 1 0 0 0 1 3023.dat
1 7 200 -248 150 0 0 -1 0 1 0 1 0 0 3710.dat
0 STEP
0 ROTSTEP 0 270 0 REL
1 7 170 -256 390 1 0 0 0 1 0 0 0 1 3020.dat
1 7 160 -256 430 0 0 -1 0 1 0 1 0 0 3023.dat
1 7 200 -256 420 1 0 0 0 1 0 0 0 1 3623.dat
1 7 140 -256 440 1 0 0 0 1 0 0 0 1 3024.dat
1 7 190 -256 450 1 0 0 0 1 0 0 0 1 3022.dat
1 7 220 -256 440 1 0 0 0 1 0 0 0 1 3024.dat
1 7 150 -256 460 1 0 0 0 1 0 0 0 1 3023.dat
0 STEP
1 7 100 -256 370 0 0 -1 0 1 0 1 0 0 3710.dat
1 7 80 -256 390 0 0 -1 0 1 0 1 0 0 3023.dat
1 7 120 -256 390 0 0 -1 0 1 0 1 0 0 3023.dat
1 7 70 -256 420 1 0 0 0 1 0 0 0 1 3023.dat
1 7 120 -256 420 1 0 0 0 1 0 0 0 1 3623.dat
1 7 60 -256 440 1 0 0 0 1 0 0 0 1 3024.dat
1 7 100 -256 450 1 0 0 0 1 0 0 0 1 3021.dat
0 STEP
1 7 200 -256 170 0 0 -1 0 1 0 1 0 0 3710.dat
1 7 80 -256 180 0 0 -1 0 1 0 1 0 0 3623.dat
1 7 60 -256 180 1 0 0 0 1 0 0 0 1 3024.dat
1 7 220 -256 210 0 0 -1 0 1 0 1 0 0 3710.dat
1 7 60 -256 250 0 0 -1 0 1 0 1 0 0 3666.dat
1 7 220 -256 280 0 0 -1 0 1 0 1 0 0 3623.dat
1 7 200 -256 310 0 0 -1 0 1 0 1 0 0 3023.dat
0 STEP
0 ROTSTEP 0 180 0 REL
1 7 100 -256 60 1 0 0 0 1 0 0 0 1 3024.dat
1 7 130 -256 70 1 0 0 0 1 0 0 0 1 3022.dat
1 7 170 -256 60 1 0 0 0 1 0 0 0 1 3023.dat
1 7 90 -256 110 0 0 -1 0 1 0 1 0 0 3020.dat
1 7 180 -256 80 1 0 0 0 1 0 0 0 1 3623.dat
1 7 190 -256 110 1 0 0 0 1 0 0 0 1 3022.dat
1 7 180 -256 140 1 0 0 0 1 0 0 0 1 3024.dat
0 STEP
1 7 200 -264 120 0 0 -1 0 1 0 1 0 0 3623.dat
1 7 180 -264 140 0 0 -1 0 1 0 1 0 0 3623.dat
1 7 200 -264 170 0 0 -1 0 1 0 1 0 0 3023.dat
1 7 80 -264 180 1 0 0 0 1 0 0 0 1 3024.dat
1 7 210 -264 210 1 0 0 0 1 0 0 0 1 3022.dat
1 7 220 -264 260 0 0 -1 0 1 0 1 0 0 3623.dat
1 7 200 -264 300 0 0 -1 0 1 0 1 0 0 3623.dat
0 STEP
1 7 130 -264 90 0 0 -1 0 1 0 1 0 0 3020.dat
1 7 160 -264 110 0 0 -1 0 1 0 1 0 0 3666.dat
1 7 100 -264 90 0 0 -1 0 1 0 1 0 0 3023.dat
1 7 180 -264 90 0 0 -1 0 1 0 1 0 0 3023.dat
1 7 80 -264 100 1 0 0 0 1 0 0 0 1 3024.dat
1 7 90 -264 120 1 0 0 0 1 0 0 0 1 3023.dat
1 7 110 -264 150 1 0 0 0 1 0 0 0 1 3020.dat
0 STEP
0 ROTSTEP 0 180 0 REL
1 7 180 -264 390 0 0 -1 0 1 0 1 0 0 3666.dat
1 7 200 -264 410 0 0 -1 0 1 0 1 0 0 3666.dat
1 7 160 -264 410 0 0 -1 0 1 0 1 0 0 3710.dat
1 7 130 -264 400 1 0 0 0 1 0 0 0 1 3023.dat
1 7 220 -264 430 0 0 -1 0 1 0 1 0 0 3710.dat
1 7 140 -264 450 0 0 -1 0 1 0 1 0 0 3710.dat
1 7 170 -264 470 1 0 0 0 1 0 0 0 1 3022.dat
0 STEP
1 7 60 -264 400 1 0 0 0 1 0 0 0 1 3024.dat
1 7 90 -264 420 1 0 0 0 1 0 0 0 1 3710.dat
1 7 60 -264 450 0 0 -1 0 1 0 1 0 0 3023.dat
1 7 100 -264 440 1 0 0 0 1 0 0 0 1 3623.dat
1 7 80 -264 460 1 0 0 0 1 0 0 0 1 3024.dat
1 7 110 -264 470 1 0 0 0 1 0 0 0 1 3022.dat
0 STEP
1 7 70 -264 200 1 0 0 0 1 0 0 0 1 3023.dat
1 7 60 -264 240 0 0 -1 0 1 0 1 0 0 3623.dat
1 7 80 -264 220 1 0 0 0 1 0 0 0 1 3024.dat
1 7 70 -264 280 1 0 0 0 1 0 0 0 1 3023.dat
1 7 100 -264 370 0 0 -1 0 1 0 1 0 0 3710.dat
1 7 80 -264 380 0 0 -1 0 1 0 1 0 0 3623.dat
1 7 120 -264 380 1 0 0 0 1 0 0 0 1 3024.dat
0 STEP
0 ROTSTEP 0 270 0 REL
1 7 80 -272 160 1 0 0 0 1 0 0 0 1 3024.dat
1 7 80 -272 210 0 0 -1 0 1 0 1 0 0 3023.dat
1 7 60 -272 220 1 0 0 0 1 0 0 0 1 3024.dat
1 7 70 -272 260 0 0 -1 0 1 0 1 0 0 3021.dat
1 7 80 -272 310 0 0 -1 0 1 0 1 0 0 3023.dat
1 7 90 -272 340 1 0 0 0 1 0 0 0 1 3023.dat
1 7 80 -272 360 1 0 0 0 1 0 0 0 1 3024.dat
0 STEP
1 7 100 -272 370 0 0 -1 0 1 0 1 0 0 3023.dat
1 7 70 -272 390 1 0 0 0 1 0 0 0 1 3022.dat
1 7 220 -272 410 0 0 -1 0 1 0 1 0 0 3710.dat
1 7 60 -272 440 0 0 -1 0 1 0 1 0 0 3623.dat
1 7 100 -272 470 1 0 0 0 1 0 0 0 1 3021.dat
1 7 170 -272 470 1 0 0 0 1 0 0 0 1 3020.dat
1 7 220 -272 460 1 0 0 0 1 0 0 0 1 3024.dat
0 STEP
1 7 80 -280 370 0 0 -1 0 1 0 1 0 0 3023.dat
1 7 60 -280 400 0 0 -1 0 1 0 1 0 0 3623.dat
1 7 220 -280 400 0 0 -1 0 1 0 1 0 0 3623.dat
1 7 50 -280 440 1 0 0 0 1 0 0 0 1 3023.dat
1 7 230 -280 440 1 0 0 0 1 0 0 0 1 3023.dat
1 7 70 -280 460 1 0 0 0 1 0 0 0 1 3023.dat
1 7 210 -280 460 1 0 0 0 1 0 0 0 1 3023.dat
1 7 110 -280 480 1 0 0 0 1 0 0 0 1 3666.dat
1 7 200 -280 480 1 0 0 0 1 0 0 0 1 3623.dat
0 STEP
1 7 200 -272 180 0 0 -1 0 1 0 1 0 0 3623.dat
1 7 210 -272 230 1 0 0 0 1 0 0 0 1 3022.dat
1 7 200 -272 280 0 0 -1 0 1 0 1 0 0 3623.dat
1 7 220 -272 270 0 0 -1 0 1 0 1 0 0 3023.dat
1 7 200 -272 350 0 0 -1 0 1 0 1 0 0 3710.dat
1 7 180 -272 360 0 0 -1 0 1 0 1 0 0 3623.dat
1 7 200 -272 400 1 0 0 0 1 0 0 0 1 3024.dat
0 STEP
0 ROTSTEP 0 270 0 REL
1 7 110 -272 100 0 0 -1 0 1 0 1 0 0 3021.dat
1 7 150 -272 90 1 0 0 0 1 0 0 0 1 3022.dat
1 7 180 -272 110 0 0 -1 0 1 0 1 0 0 3710.dat
1 7 150 -272 140 0 0 -1 0 1 0 1 0 0 3021.dat
1 7 110 -272 150 1 0 0 0 1 0 0 0 1 3022.dat
1 7 180 -272 160 1 0 0 0 1 0 0 0 1 3024.dat
1 7 130 -272 180 1 0 0 0 1 0 0 0 1 3666.dat
0 STEP
1 7 120 -280 120 0 0 -1 0 1 0 1 0 0 3623.dat
1 7 150 -280 110 1 0 0 0 1 0 0 0 1 3022.dat
1 7 140 -280 140 1 0 0 0 1 0 0 0 1 3024.dat
1 7 160 -280 160 0 0 -1 0 1 0 1 0 0 3623.dat
1 7 100 -280 160 1 0 0 0 1 0 0 0 1 3024.dat
1 7 130 -280 170 1 0 0 0 1 0 0 0 1 3022.dat
1 7 180 -280 160 1 0 0 0 1 0 0 0 1 3024.dat
0 STEP
1 7 90 -280 180 1 0 0 0 1 0 0 0 1 3023.dat
1 7 130 -280 200 1 0 0 0 1 0 0 0 1 3666.dat
1 7 80 -280 250 0 0 -1 0 1 0 1 0 0 3710.dat
1 7 60 -280 250 0 0 -1 0 1 0 1 0 0 3023.dat
1 7 90 -280 300 1 0 0 0 1 0 0 0 1 3023.dat
1 7 80 -280 320 1 0 0 0 1 0 0 0 1 3024.dat
1 7 90 -280 340 1 0 0 0 1 0 0 0 1 3023.dat
0 STEP
0 ROTSTEP 0 180 0 REL
1 7 190 -280 180 1 0 0 0 1 0 0 0 1 3023.dat
1 7 200 -280 230 0 0 -1 0 1 0 1 0 0 3710.dat
1 7 220 -280 250 0 0 -1 0 1 0 1 0 0 3023.dat
1 7 200 -280 280 1 0 0 0 1 0 0 0 1 3024.dat
1 7 190 -280 300 1 0 0 0 1 0 0 0 1 3023.dat
1 7 200 -280 350 0 0 -1 0 1 0 1 0 0 3710.dat
1 7 180 -280 340 1 0 0 0 1 0 0 0 1 3024.dat
0 STEP
1 7 60 -288 360 1 0 0 0 1 0 0 0 1 3024.dat
1 7 60 -288 410 0 0 -1 0 1 0 1 0 0 3710.dat
1 7 40 -288 430 0 0 -1 0 1 0 1 0 0 3023.dat
1 7 60 -288 460 1 0 0 0 1 0 0 0 1 3024.dat
1 7 220 -288 460 1 0 0 0 1 0 0 0 1 3024.dat
1 7 80 -288 480 1 0 0 0 1 0 0 0 1 3623.dat
1 7 170 -288 480 1 0 0 0 1 0 0 0 1 3666.dat
0 STEP
1 7 210 -288 360 1 0 0 0 1 0 0 0 1 3023.dat
1 7 220 -288 400 0 0 -1 0 1 0 1 0 0 3623.dat
1 7 240 -288 420 1 0 0 0 1 0 0 0 1 3024.dat
1 7 230 -288 440 1 0 0 0 1 0 0 0 1 3023.dat
0 STEP
1 7 100 -288 210 1 0 0 0 1 0 0 0 1 3021.dat
1 7 100 -288 240 1 0 0 0 1 0 0 0 1 3623.dat
1 7 80 -288 310 0 0 -1 0 1 0 1 0 0 3666.dat
1 7 110 -288 260 1 0 0 0 1 0 0 0 1 3023.dat
1 7 100 -288 290 0 0 -1 0 1 0 1 0 0 3023.dat
1 7 190 -288 290 1 0 0 0 1 0 0 0 1 3022.dat
1 7 200 -288 330 0 0 -1 0 1 0 1 0 0 3023.dat
0 STEP
1 7 130 -288 180 1 0 0 0 1 0 0 0 1 3710.dat
1 7 180 -288 210 0 0 -1 0 1 0 1 0 0 3710.dat
1 7 150 -288 200 1 0 0 0 1 0 0 0 1 3023.dat
1 7 200 -288 220 0 0 -1 0 1 0 1 0 0 3623.dat
1 7 140 -288 240 0 0 -1 0 1 0 1 0 0 3623.dat
1 7 160 -288 230 0 0 -1 0 1 0 1 0 0 3023.dat
1 7 180 -288 260 1 0 0 0 1 0 0 0 1 3623.dat
0 STEP
1 7 110 -296 210 1 0 0 0 1 0 0 0 1 3022.dat
1 7 150 -296 220 0 0 -1 0 1 0 1 0 0 3021.dat
1 7 80 -296 220 1 0 0 0 1 0 0 0 1 3024.dat
1 7 100 -296 240 1 0 0 0 1 0 0 0 1 3623.dat
1 7 90 -296 260 1 0 0 0 1 0 0 0 1 3023.dat
1 7 140 -296 260 1 0 0 0 1 0 0 0 1 3623.dat
1 7 100 -296 280 1 0 0 0 1 0 0 0 1 3623.dat
0 STEP
1 7 60 -296 390 0 0 -1 0 1 0 1 0 0 3710.dat
1 7 40 -296 430 0 0 -1 0 1 0 1 0 0 3710.dat
1 7 230 -296 410 1 0 0 0 1 0 0 0 1 3022.dat
1 7 240 -296 450 0 0 -1 0 1 0 1 0 0 3023.dat
1 7 60 -296 470 0 0 -1 0 1 0 1 0 0 3023.dat
1 7 220 -296 470 0 0 -1 0 1 0 1 0 0 3023.dat
1 7 110 -296 480 1 0 0 0 1 0 0 0 1 3710.dat
1 7 180 -296 480 1 0 0 0 1 0 0 0 1 3623.dat
0 STEP
1 7 180 -296 250 0 0 -1 0 1 0 1 0 0 3666.dat
1 7 200 -296 250 0 0 -1 0 1 0 1 0 0 3710.dat
1 7 150 -296 280 1 0 0 0 1 0 0 0 1 3023.dat
1 7 100 -296 300 1 0 0 0 1 0 0 0 1 3024.dat
1 7 80 -296 340 0 0 -1 0 1 0 1 0 0 3623.dat
1 7 200 -296 340 0 0 -1 0 1 0 1 0 0 3623.dat
1 7 220 -296 370 0 0 -1 0 1 0 1 0 0 3023.dat
0 STEP
1 7 130 -304 230 1 0 0 0 1 0 0 0 1 3020.dat
1 7 180 -304 250 0 0 -1 0 1 0 1 0 0 3710.dat
1 7 130 -304 270 1 0 0 0 1 0 0 0 1 3020.dat
1 7 100 -304 300 1 0 0 0 1 0 0 0 1 3024.dat
1 7 180 -304 300 1 0 0 0 1 0 0 0 1 3024.dat
1 7 80 -320 320 1 0 0 0 1 0 0 0 1 3005.dat
1 7 200 -304 330 0 0 -1 0 1 0 1 0 0 3023.dat
0 STEP
1 7 70 -304 340 1 0 0 0 1 0 0 0 1 3023.dat
1 7 60 -304 380 0 0 -1 0 1 0 1 0 0 3623.dat
1 7 40 -304 420 0 0 -1 0 1 0 1 0 0 3623.dat
1 7 60 -304 470 0 0 -1 0 1 0 1 0 0 3023.dat
1 7 220 -304 470 0 0 -1 0 1 0 1 0 0 3023.dat
1 7 110 -304 480 1 0 0 0 1 0 0 0 1 3710.dat
1 7 180 -304 480 1 0 0 0 1 0 0 0 1 3623.dat
0 STEP
1 7 220 -304 360 0 0 -1 0 1 0 1 0 0 3623.dat
1 7 230 -304 400 1 0 0 0 1 0 0 0 1 3023.dat
1 7 240 -304 430 0 0 -1 0 1 0 1 0 0 3023.dat
0 STEP
1 7 90 -312 300 1 0 0 0 1 0 0 0 1 3023.dat
1 7 70 -312 340 1 0 0 0 1 0 0 0 1 3023.dat
1 7 60 -312 380 0 0 -1 0 1 0 1 0 0 3623.dat
1 7 40 -312 420 0 0 -1 0 1 0 1 0 0 3623.dat
1 7 60 -312 450 0 0 -1 0 1 0 1 0 0 3710.dat
1 7 130 -312 480 1 0 0 0 1 0 0 0 1 3666.dat
1 7 200 -312 480 1 0 0 0 1 0 0 0 1 3024.dat
0 STEP
1 7 140 -312 280 1 0 0 0 1 0 0 0 1 3623.dat
1 7 190 -312 300 1 0 0 0 1 0 0 0 1 3023.dat
1 7 200 -312 330 0 0 -1 0 1 0 1 0 0 3023.dat
1 7 220 -312 360 0 0 -1 0 1 0 1 0 0 3623.dat
1 7 230 -312 400 1 0 0 0 1 0 0 0 1 3023.dat
1 7 220 -312 450 0 0 -1 0 1 0 1 0 0 3710.dat
1 7 240 -312 430 0 0 -1 0 1 0 1 0 0 3023.dat
0 STEP
1 7 140 -320 280 1 0 0 0 1 0 0 0 1 3623.dat
1 7 90 -320 300 1 0 0 0 1 0 0 0 1 3023.dat
1 7 180 -320 300 1 0 0 0 1 0 0 0 1 3024.dat
1 7 200 -320 310 0 0 -1 0 1 0 1 0 0 3023.dat
1 7 60 -320 350 0 0 -1 0 1 0 1 0 0 3710.dat
1 7 220 -320 370 0 0 -1 0 1 0 1 0 0 3666.dat
1 7 240 -320 410 0 0 -1 0 1 0 1 0 0 3023.dat
0 STEP
1 7 50 -320 420 0 0 -1 0 1 0 1 0 0 3021.dat
1 7 230 -320 440 1 0 0 0 1 0 0 0 1 3023.dat
1 7 70 -320 470 1 0 0 0 1 0 0 0 1 3022.dat
1 7 210 -320 460 1 0 0 0 1 0 0 0 1 3023.dat
1 7 120 -320 480 1 0 0 0 1 0 0 0 1 3623.dat
1 7 190 -320 480 1 0 0 0 1 0 0 0 1 3710.dat
0 STEP
1 7 60 -328 430 0 0 -1 0 1 0 1 0 0 3023.dat
1 7 70 -328 460 1 0 0 0 1 0 0 0 1 3023.dat
1 7 110 -328 480 1 0 0 0 1 0 0 0 1 3710.dat
0 STEP
1 7 200 -328 320 1 0 0 0 1 0 0 0 1 3024.dat
1 7 220 -328 350 0 0 -1 0 1 0 1 0 0 3710.dat
1 7 220 -328 420 0 0 -1 0 1 0 1 0 0 3623.dat
1 7 120 -328 460 1 0 0 0 1 0 0 0 1 3623.dat
1 7 170 -328 470 1 0 0 0 1 0 0 0 1 3022.dat
1 7 210 -328 460 1 0 0 0 1 0 0 0 1 3023.dat
1 7 200 -328 480 1 0 0 0 1 0 0 0 1 3024.dat
0 STEP
1 7 130 -328 280 1 0 0 0 1 0 0 0 1 3710.dat
1 7 180 -328 280 1 0 0 0 1 0 0 0 1 3024.dat
1 7 80 -328 310 0 0 -1 0 1 0 1 0 0 3023.dat
1 7 100 -328 300 1 0 0 0 1 0 0 0 1 3024.dat
1 7 190 -344 300 1 0 0 0 1 0 0 0 1 3004.dat
1 7 60 -328 330 0 0 -1 0 1 0 1 0 0 3023.dat
1 7 60 -328 380 0 0 -1 0 1 0 1 0 0 3623.dat
0 STEP
1 7 100 -336 280 1 0 0 0 1 0 0 0 1 3024.dat
1 7 150 -336 280 1 0 0 0 1 0 0 0 1 3710.dat
1 7 90 -352 300 -1 0 0 0 1 0 0 0 -1 3004.dat
1 7 60 -336 390 0 0 -1 0 1 0 1 0 0 3460.dat
1 7 220 -336 370 0 0 -1 0 1 0 1 0 0 3666.dat
1 7 220 -336 440 1 0 0 0 1 0 0 0 1 3024.dat
1 7 150 -336 460 1 0 0 0 1 0 0 0 1 3460.dat
1 7 100 -336 480 1 0 0 0 1 0 0 0 1 3024.dat
1 7 150 -336 480 1 0 0 0 1 0 0 0 1 3710.dat
0 STEP
1 7 110 -344 280 1 0 0 0 1 0 0 0 1 3023.dat
1 7 160 -344 280 1 0 0 0 1 0 0 0 1 3623.dat
1 7 70 -344 320 1 0 0 0 1 0 0 0 1 3023.dat
1 7 210 -344 320 1 0 0 0 1 0 0 0 1 3023.dat
1 7 60 -344 390 0 0 -1 0 1 0 1 0 0 3666.dat
1 7 220 -344 370 0 0 -1 0 1 0 1 0 0 3710.dat
1 7 220 -344 440 0 0 -1 0 1 0 1 0 0 3623.dat
1 7 130 -344 460 1 0 0 0 1 0 0 0 1 3460.dat
0 STEP
1 7 70 -352 320 1 0 0 0 1 0 0 0 1 3023.dat
1 7 60 -352 360 0 0 -1 0 1 0 1 0 0 3623.dat
1 7 60 -352 410 0 0 -1 0 1 0 1 0 0 3023.dat
1 7 70 -352 440 1 0 0 0 1 0 0 0 1 3023.dat
1 7 130 -352 460 1 0 0 0 1 0 0 0 1 3666.dat
1 7 200 -352 460 1 0 0 0 1 0 0 0 1 3024.dat
0 STEP
1 7 120 -352 280 -1 0 0 0 1 0 0 0 -1 3623.dat
1 7 170 -352 280 1 0 0 0 1 0 0 0 1 3023.dat
1 7 190 -352 300 1 0 0 0 1 0 0 0 1 3023.dat
1 7 210 -352 320 1 0 0 0 1 0 0 0 1 3023.dat
1 7 220 -352 360 0 0 -1 0 1 0 1 0 0 3623.dat
1 7 220 -352 410 0 0 -1 0 1 0 1 0 0 3023.dat
1 7 210 -352 440 1 0 0 0 1 0 0 0 1 3023.dat
0 STEP
1 7 90 -360 450 1 0 0 0 1 0 0 0 1 3022.dat
1 7 190 -360 440 1 0 0 0 1 0 0 0 1 3023.dat
1 7 120 -360 460 1 0 0 0 1 0 0 0 1 3024.dat
1 7 170 -360 460 1 0 0 0 1 0 0 0 1 3710.dat
0 STEP
1 7 140 -360 280 -1 0 0 0 1 0 0 0 -1 3623.dat
1 7 110 -376 300 1 0 0 0 1 0 0 0 1 3004.dat
1 7 180 -360 300 1 0 0 0 1 0 0 0 1 3623.dat
1 7 80 -360 310 0 0 1 0 1 0 -1 0 0 3023.dat
1 7 200 -360 320 1 0 0 0 1 0 0 0 1 3024.dat
1 7 60 -360 390 0 0 -1 0 1 0 1 0 0 3666.dat
1 7 220 -360 390 0 0 -1 0 1 0 1 0 0 3666.dat
0 STEP
1 7 60 -368 390 0 0 -1 0 1 0 1 0 0 3666.dat
1 7 110 -368 440 1 0 0 0 1 0 0 0 1 3710.dat
1 7 170 -368 450 1 0 0 0 1 0 0 0 1 3022.dat
1 7 210 -368 440 1 0 0 0 1 0 0 0 1 3023.dat
1 7 120 -368 460 1 0 0 0 1 0 0 0 1 3623.dat
0 STEP
1 7 50 -376 350 1 0 0 0 1 0 0 0 1 3022.dat
1 7 60 -376 410 0 0 -1 0 1 0 1 0 0 3710.dat
1 7 110 -376 440 1 0 0 0 1 0 0 0 1 3710.dat
1 7 160 -376 450 0 0 -1 0 1 0 1 0 0 3023.dat
1 7 130 -376 460 1 0 0 0 1 0 0 0 1 3023.dat
0 STEP
1 7 140 -368 280 1 0 0 0 1 0 0 0 1 3623.dat
1 7 80 -368 310 0 0 -1 0 1 0 1 0 0 3023.dat
1 7 140 -384 300 1 0 0 0 1 0 0 0 1 3005.dat
1 7 180 -368 300 1 0 0 0 1 0 0 0 1 3623.dat
1 7 200 -368 320 1 0 0 0 1 0 0 0 1 3024.dat
1 7 220 -368 340 1 0 0 0 1 0 0 0 1 3024.dat
1 7 220 -368 390 0 0 -1 0 1 0 1 0 0 3710.dat
0 STEP
1 7 140 -376 280 1 0 0 0 1 0 0 0 1 3024.dat
1 7 170 -376 300 1 0 0 0 1 0 0 0 1 3023.dat
1 7 90 -392 320 1 0 0 0 1 0 0 0 1 3004.dat
1 7 190 -376 320 1 0 0 0 1 0 0 0 1 3023.dat
1 7 230 -376 350 1 0 0 0 1 0 0 0 1 3022.dat
1 7 220 -376 410 0 0 -1 0 1 0 1 0 0 3710.dat
1 7 190 -376 440 1 0 0 0 1 0 0 0 1 3023.dat
0 STEP
1 7 110 -384 300 -1 0 0 0 1 0 0 0 -1 3023.dat
1 7 160 -384 300 1 0 0 0 1 0 0 0 1 3024.dat
1 7 180 -384 310 0 0 -1 0 1 0 1 0 0 3023.dat
1 7 200 -384 320 1 0 0 0 1 0 0 0 1 3024.dat
1 7 210 -384 340 1 0 0 0 1 0 0 0 1 3023.dat
1 7 240 -384 360 0 0 -1 0 1 0 1 0 0 3623.dat
1 7 220 -384 380 0 0 -1 0 1 0 1 0 0 3623.dat
0 STEP
1 7 60 -384 340 1 0 0 0 1 0 0 0 1 3623.dat
1 7 20 -384 360 1 0 0 0 1 0 0 0 1 3024.dat
1 7 40 -384 370 0 0 -1 0 1 0 1 0 0 3023.dat
1 7 60 -384 390 0 0 -1 0 1 0 1 0 0 3710.dat
1 7 260 -384 360 1 0 0 0 1 0 0 0 1 3024.dat
1 7 220 -384 430 0 0 -1 0 1 0 1 0 0 3023.dat
1 7 60 -384 440 1 0 0 0 1 0 0 0 1 3024.dat
1 7 130 -384 440 1 0 0 0 1 0 0 0 1 3666.dat
1 7 200 -384 440 1 0 0 0 1 0 0 0 1 3024.dat
0 STEP
1 7 50 -392 340 1 0 0 0 1 0 0 0 1 3710.dat
1 7 30 -392 370 1 0 0 0 1 0 0 0 1 3022.dat
1 7 60 -392 400 0 0 -1 0 1 0 1 0 0 3623.dat
1 7 80 -392 430 0 0 -1 0 1 0 1 0 0 3023.dat
1 7 200 -392 430 0 0 -1 0 1 0 1 0 0 3023.dat
1 7 130 -392 440 1 0 0 0 1 0 0 0 1 3710.dat
1 7 180 -392 440 1 0 0 0 1 0 0 0 1 3024.dat
0 STEP
1 7 140 -392 300 1 0 0 0 1 0 0 0 1 3623.dat
1 7 120 -408 320 1 0 0 0 1 0 0 0 1 3005.dat
1 7 180 -392 320 1 0 0 0 1 0 0 0 1 3623.dat
1 7 230 -392 340 1 0 0 0 1 0 0 0 1 3710.dat
1 7 250 -392 360 1 0 0 0 1 0 0 0 1 3023.dat
1 7 240 -392 380 1 0 0 0 1 0 0 0 1 3623.dat
1 7 220 -392 410 0 0 -1 0 1 0 1 0 0 3023.dat
0 STEP
1 7 40 -400 340 1 0 0 0 1 0 0 0 1 3623.dat
1 7 20 -400 370 0 0 -1 0 1 0 1 0 0 3023.dat
1 7 40 -400 380 1 0 0 0 1 0 0 0 1 3024.dat
1 7 50 -400 400 1 0 0 0 1 0 0 0 1 3023.dat
1 7 70 -400 420 1 0 0 0 1 0 0 0 1 3023.dat
1 7 80 -400 440 1 0 0 0 1 0 0 0 1 3024.dat
1 7 150 -400 440 1 0 0 0 1 0 0 0 1 3666.dat
0 STEP
1 7 260 -400 360 0 0 -1 0 1 0 1 0 0 3623.dat
1 7 240 -400 380 1 0 0 0 1 0 0 0 1 3024.dat
1 7 230 -400 400 1 0 0 0 1 0 0 0 1 3023.dat
1 7 210 -400 420 1 0 0 0 1 0 0 0 1 3023.dat
0 STEP
1 7 140 -400 300 1 0 0 0 1 0 0 0 1 3623.dat
1 7 100 -400 320 1 0 0 0 1 0 0 0 1 3024.dat
1 7 140 -416 320 1 0 0 0 1 0 0 0 1 3005.dat
1 7 160 -400 320 1 0 0 0 1 0 0 0 1 3024.dat
1 7 180 -400 330 0 0 -1 0 1 0 1 0 0 3023.dat
1 7 90 -400 340 1 0 0 0 1 0 0 0 1 3023.dat
1 7 220 -400 340 1 0 0 0 1 0 0 0 1 3623.dat
0 STEP
1 7 140 -408 300 1 0 0 0 1 0 0 0 1 3024.dat
1 7 100 -408 330 0 0 -1 0 1 0 1 0 0 3023.dat
1 7 160 -408 320 1 0 0 0 1 0 0 0 1 3024.dat
1 7 180 -408 330 0 0 -1 0 1 0 1 0 0 3023.dat
1 7 230 -408 340 1 0 0 0 1 0 0 0 1 3710.dat
1 7 240 -408 380 1 0 0 0 1 0 0 0 1 3623.dat
1 7 220 -408 400 1 0 0 0 1 0 0 0 1 3623.dat
0 STEP
1 7 50 -408 340 1 0 0 0 1 0 0 0 1 3710.dat
1 7 10 -408 360 1 0 0 0 1 0 0 0 1 3023.dat
1 7 30 -408 380 1 0 0 0 1 0 0 0 1 3023.dat
1 7 60 -408 390 0 0 -1 0 1 0 1 0 0 3023.dat
1 7 40 -408 400 1 0 0 0 1 0 0 0 1 3024.dat
1 7 80 -408 410 0 0 -1 0 1 0 1 0 0 3023.dat
1 7 90 -408 440 1 0 0 0 1 0 0 0 1 3023.dat
0 STEP
1 7 270 -408 360 1 0 0 0 1 0 0 0 1 3023.dat
1 7 110 -408 420 1 0 0 0 1 0 0 0 1 3023.dat
1 7 180 -408 420 1 0 0 0 1 0 0 0 1 3623.dat
1 7 140 -408 440 1 0 0 0 1 0 0 0 1 3623.dat
1 7 190 -408 440 1 0 0 0 1 0 0 0 1 3023.dat
0 STEP
1 7 20 -416 360 1 0 0 0 1 0 0 0 1 3623.dat
1 7 280 -416 360 1 0 0 0 1 0 0 0 1 3024.dat
1 7 40 -416 400 1 0 0 0 1 0 0 0 1 3024.dat
1 7 130 -416 420 1 0 0 0 1 0 0 0 1 3666.dat
1 7 110 -416 440 1 0 0 0 1 0 0 0 1 3023.dat
1 7 160 -416 440 1 0 0 0 1 0 0 0 1 3623.dat
0 STEP
1 7 160 -416 330 0 0 -1 0 1 0 1 0 0 3023.dat
1 7 190 -416 340 1 0 0 0 1 0 0 0 1 3023.dat
1 7 240 -416 340 1 0 0 0 1 0 0 0 1 3623.dat
1 7 230 -416 360 1 0 0 0 1 0 0 0 1 3710.dat
1 7 240 -416 380 1 0 0 0 1 0 0 0 1 3623.dat
1 7 200 -416 410 0 0 -1 0 1 0 1 0 0 3023.dat
1 7 230 -416 400 1 0 0 0 1 0 0 0 1 3023.dat
0 STEP
1 7 120 -416 330 0 0 -1 0 1 0 1 0 0 3023.dat
1 7 40 -416 340 1 0 0 0 1 0 0 0 1 3623.dat
1 7 90 -416 340 1 0 0 0 1 0 0 0 1 3023.dat
1 7 70 -416 360 1 0 0 0 1 0 0 0 1 3023.dat
1 7 30 -416 380 1 0 0 0 1 0 0 0 1 3023.dat
1 7 60 -416 390 0 0 -1 0 1 0 1 0 0 3023.dat
1 7 80 -416 400 1 0 0 0 1 0 0 0 1 3024.dat
0 STEP
1 7 20 -424 360 0 0 -1 0 1 0 1 0 0 3623.dat
1 7 50 -424 360 0 0 -1 0 1 0 1 0 0 3021.dat
1 7 90 -424 350 1 0 0 0 1 0 0 0 1 3022.dat
1 7 250 -424 360 0 0 -1 0 1 0 1 0 0 3021.dat
1 7 80 -424 400 0 0 -1 0 1 0 1 0 0 3623.dat
1 7 110 -424 420 1 0 0 0 1 0 0 0 1 3023.dat
1 7 140 -424 430 0 0 -1 0 1 0 1 0 0 3023.dat
0 STEP
1 7 130 -424 330 1 0 0 0 1 0 0 0 1 3022.dat
1 7 160 -424 320 1 0 0 0 1 0 0 0 1 3024.dat
1 7 180 -424 340 1 0 0 0 1 0 0 0 1 3623.dat
1 7 220 -424 360 0 0 -1 0 1 0 1 0 0 3623.dat
1 7 190 -424 360 1 0 0 0 1 0 0 0 1 3023.dat
1 7 200 -424 400 0 0 -1 0 1 0 1 0 0 3623.dat
1 7 170 -424 420 1 0 0 0 1 0 0 0 1 3023.dat
0 STEP
1 7 140 -432 350 0 0 -1 0 1 0 1 0 0 3710.dat
1 7 110 -432 350 1 0 0 0 1 0 0 0 1 3022.dat
1 7 170 -432 340 1 0 0 0 1 0 0 0 1 3023.dat
1 7 190 -432 360 1 0 0 0 1 0 0 0 1 3710.dat
1 7 210 -432 380 1 0 0 0 1 0 0 0 1 3023.dat
1 7 150 -432 410 1 0 0 0 1 0 0 0 1 3020.dat
1 7 200 -432 410 0 0 -1 0 1 0 1 0 0 3023.dat
0 STEP
1 7 50 -432 370 1 0 0 0 1 0 0 0 1 3022.dat
1 7 80 -432 390 0 0 -1 0 1 0 1 0 0 3710.dat
1 7 240 -432 370 0 0 -1 0 1 0 1 0 0 3023.dat
1 7 100 -432 410 0 0 -1 0 1 0 1 0 0 3023.dat
0 STEP
1 7 90 -440 360 1 0 0 0 1 0 0 0 1 3023.dat
1 7 80 -440 380 1 0 0 0 1 0 0 0 1 3024.dat
1 7 110 -440 400 1 0 0 0 1 0 0 0 1 3710.dat
0 STEP
1 7 140 -440 340 1 0 0 0 1 0 0 0 1 3623.dat
1 7 130 -440 370 1 0 0 0 1 0 0 0 1 3022.dat
1 7 160 -440 380 0 0 -1 0 1 0 1 0 0 3623.dat
1 7 180 -440 360 1 0 0 0 1 0 0 0 1 3024.dat
1 7 200 -440 380 0 0 -1 0 1 0 1 0 0 3623.dat
1 7 180 -440 410 0 0 -1 0 1 0 1 0 0 3023.dat
1 7 130 -440 420 1 0 0 0 1 0 0 0 1 3710.dat
0 STEP
1 7 100 -448 370 1 0 0 0 1 0 0 0 1 3021.dat
1 7 150 -448 380 0 0 -1 0 1 0 1 0 0 3021.dat
1 7 190 -448 380 0 0 -1 0 1 0 1 0 0 3021.dat
1 7 100 -448 400 1 0 0 0 1 0 0 0 1 3623.dat
0 STEP
1 7 100 -456 370 1 0 0 0 1 0 0 0 1 3021.dat
1 7 180 -456 370 1 0 0 0 1 0 0 0 1 3021.dat
1 7 90 -456 400 1 0 0 0 1 0 0 0 1 3023.dat
1 7 190 -456 400 1 0 0 0 1 0 0 0 1 3023.dat
0 STEP
1 7 90 -464 380 0 0 -1 0 1 0 1 0 0 3021.dat
1 7 190 -464 380 0 0 -1 0 1 0 1 0 0 3021.dat
0 STEP
1 7 80 -472 380 0 0 -1 0 1 0 1 0 0 3623.dat
1 7 100 -472 370 0 0 -1 0 1 0 1 0 0 3023.dat
1 7 190 -472 370 1 0 0 0 1 0 0 0 1 3022.dat
1 7 200 -472 400 1 0 0 0 1 0 0 0 1 3024.dat
0 STEP
1 7 90 -480 370 1 0 0 0 1 0 0 0 1 3022.dat
1 7 190 -480 370 1 0 0 0 1 0 0 0 1 3022.dat
0 STEP
0 ROTSTEP END
