0 arch
0 Name: arch.ldr
0 Author: legolization
0 !LDRAW_ORG Unofficial_Model
0 !LICENSE Licensed under GPL-3.0-or-later
1 1 150 -24 20 0 0 -1 0 1 0 1 0 0 3002.dat
1 1 10 -24 20 0 0 1 0 1 0 -1 0 0 3002.dat
0 STEP
1 1 10 -48 20 0 0 -1 0 1 0 1 0 0 3002.dat
1 1 150 -48 20 0 0 1 0 1 0 -1 0 0 3002.dat
0 STEP
1 1 10 -72 20 0 0 -1 0 1 0 1 0 0 3002.dat
1 1 150 -72 20 0 0 1 0 1 0 -1 0 0 3002.dat
0 STEP
1 1 10 -96 20 0 0 -1 0 1 0 1 0 0 3002.dat
1 1 150 -96 20 0 0 -1 0 1 0 1 0 0 3002.dat
0 STEP
1 1 10 -120 20 0 0 -1 0 1 0 1 0 0 3002.dat
1 1 150 -120 20 0 0 -1 0 1 0 1 0 0 3002.dat
0 STEP
1 4 20 -128 10 1 0 0 0 1 0 0 0 1 3021.dat
1 4 110 -128 10 1 0 0 0 1 0 0 0 1 3795.dat
1 4 0 -128 40 1 0 0 0 1 0 0 0 1 3024.dat
1 4 90 -128 40 1 0 0 0 1 0 0 0 1 3460.dat
0 STEP
1 4 20 -136 0 1 0 0 0 1 0 0 0 1 3623.dat
1 4 70 -136 20 0 0 -1 0 1 0 1 0 0 3021.dat
1 4 130 -136 0 1 0 0 0 1 0 0 0 1 3710.dat
1 4 20 -136 30 1 0 0 0 1 0 0 0 1 3021.dat
1 4 130 -136 30 1 0 0 0 1 0 0 0 1 3020.dat
0 STEP
1 4 20 -144 0 1 0 0 0 1 0 0 0 1 3623.dat
1 4 110 -144 0 1 0 0 0 1 0 0 0 1 3666.dat
1 4 10 -144 30 1 0 0 0 1 0 0 0 1 3022.dat
1 4 50 -144 20 1 0 0 0 1 0 0 0 1 3023.dat
1 4 100 -144 20 1 0 0 0 1 0 0 0 1 3623.dat
1 4 150 -144 20 1 0 0 0 1 0 0 0 1 3023.dat
1 4 70 -144 40 1 0 0 0 1 0 0 0 1 3710.dat
1 4 140 -144 40 1 0 0 0 1 0 0 0 1 3623.dat
0 STEP
