<svg xmlns="http://www.w3.org/2000/svg" viewBox="0 0 48 48">
  <rect x="2" y="2" width="44" height="44" rx="10" fill="#F6F1E7" stroke="#252A33" stroke-width="2" stroke-linejoin="round"/>
  <path d="M9 21 C8 15 12 10 17 12 C22 14 22 20 19 24 C16 28 10 27 9 21 Z" fill="#2C6BD9" stroke="#252A33" stroke-width="2" stroke-linejoin="round"/>
  <path d="M9 18 Q14 21 20 17.5 M10.5 23.5 Q15 25.5 19 23 M16 11.5 Q18.5 19 17.5 26" fill="none" stroke="#F6F1E7" stroke-width="1.5" stroke-linecap="round"/>
  <path d="M19 32 H23.5 M21.5 29.2 L24.5 32 L21.5 34.8" fill="none" stroke="#252A33" stroke-width="2" stroke-linejoin="round" stroke-linecap="round"/>
  <rect x="30" y="15" width="4" height="3" fill="#F2B705" stroke="#252A33" stroke-width="2" stroke-linejoin="round"/>
  <rect x="36" y="15" width="4" height="3" fill="#F2B705" stroke="#252A33" stroke-width="2" stroke-linejoin="round"/>
  <rect x="28" y="18" width="14" height="7" fill="#F2B705" stroke="#252A33" stroke-width="2" stroke-linejoin="round"/>
  <rect x="29" y="25" width="4" height="3" fill="#D92B2B" stroke="#252A33" stroke-width="2" stroke-linejoin="round"/>
  <rect x="37" y="25" width="4" height="3" fill="#D92B2B" stroke="#252A33" stroke-width="2" stroke-linejoin="round"/>
  <rect x="26" y="28" width="18" height="8" fill="#D92B2B" stroke="#252A33" stroke-width="2" stroke-linejoin="round"/>
  <rect x="30" y="25.8" width="1.6" height="1" fill="#FFFFFF"/>
  <rect x="38" y="25.8" width="1.6" height="1" fill="#FFFFFF"/>
</svg>
