0 cantilever-bond
0 Name: cantilever-bond.ldr
0 Author: legolization
0 !LDRAW_ORG Unofficial_Model
0 !LICENSE Licensed under GPL-3.0-or-later
1 7 10 -8 30 0 0 -1 0 1 0 1 0 0 3020.dat
1 7 40 -8 30 0 0 -1 0 1 0 1 0 0 3710.dat
1 7 60 -8 20 0 0 -1 0 1 0 1 0 0 3623.dat
1 7 110 -8 10 1 0 0 0 1 0 0 0 1 3020.dat
1 7 170 -8 30 0 0 -1 0 1 0 1 0 0 3020.dat
1 7 110 -8 40 1 0 0 0 1 0 0 0 1 3710.dat
1 7 80 -8 60 1 0 0 0 1 0 0 0 1 3623.dat
1 7 130 -8 60 1 0 0 0 1 0 0 0 1 3023.dat
0 STEP
1 7 30 -16 0 1 0 0 0 1 0 0 0 1 3710.dat
1 7 80 -16 30 0 0 -1 0 1 0 1 0 0 3710.dat
1 7 120 -16 0 1 0 0 0 1 0 0 0 1 3623.dat
1 7 30 -16 30 1 0 0 0 1 0 0 0 1 3020.dat
1 7 130 -16 30 1 0 0 0 1 0 0 0 1 3020.dat
1 7 30 -16 60 1 0 0 0 1 0 0 0 1 3710.dat
1 7 120 -16 60 1 0 0 0 1 0 0 0 1 3623.dat
0 STEP
1 7 30 -24 0 1 0 0 0 1 0 0 0 1 2431.dat
1 7 110 -24 0 1 0 0 0 1 0 0 0 1 2431.dat
1 7 30 -24 30 1 0 0 0 1 0 0 0 1 3020.dat
1 7 80 -24 20 1 0 0 0 1 0 0 0 1 3070b.dat
1 7 80 -24 50 0 0 -1 0 1 0 1 0 0 3069b.dat
1 7 30 -24 60 1 0 0 0 1 0 0 0 1 2431.dat
1 7 100 -24 60 1 0 0 0 1 0 0 0 1 3070b.dat
0 STEP
0 ROTSTEP 0 180 0 REL
1 4 10 -48 30 1 0 0 0 1 0 0 0 1 3003.dat
0 STEP
1 4 10 -72 30 1 0 0 0 1 0 0 0 1 3003.dat
0 STEP
1 4 10 -96 30 1 0 0 0 1 0 0 0 1 3003.dat
0 STEP
1 4 10 -120 30 1 0 0 0 1 0 0 0 1 3003.dat
0 STEP
0 ROTSTEP 0 180 0 REL
1 7 170 -16 0 1 0 0 0 1 0 0 0 1 3023.dat
1 7 180 -16 30 0 0 -1 0 1 0 1 0 0 3023.dat
1 7 170 -16 60 1 0 0 0 1 0 0 0 1 3023.dat
0 STEP
1 7 160 -24 0 1 0 0 0 1 0 0 0 1 3070b.dat
1 7 180 -24 0 1 0 0 0 1 0 0 0 1 3070b.dat
1 7 130 -24 20 1 0 0 0 1 0 0 0 1 2431.dat
1 7 180 -24 30 0 0 -1 0 1 0 1 0 0 3069b.dat
1 7 130 -24 40 1 0 0 0 1 0 0 0 1 2431.dat
1 7 130 -24 60 1 0 0 0 1 0 0 0 1 3069b.dat
1 7 170 -24 60 1 0 0 0 1 0 0 0 1 3069b.dat
0 STEP
1 14 20 -128 30 1 0 0 0 1 0 0 0 1 3021.dat
1 14 80 -128 20 1 0 0 0 1 0 0 0 1 3623.dat
1 14 150 -128 20 1 0 0 0 1 0 0 0 1 3710.dat
1 14 90 -128 40 1 0 0 0 1 0 0 0 1 3710.dat
1 14 160 -128 40 1 0 0 0 1 0 0 0 1 3623.dat
1 14 30 -136 30 1 0 0 0 1 0 0 0 1 3020.dat
1 14 130 -136 30 1 0 0 0 1 0 0 0 1 3795.dat
1 14 30 -144 30 1 0 0 0 1 0 0 0 1 3020.dat
1 14 130 -144 30 1 0 0 0 1 0 0 0 1 3795.dat
0 STEP
1 14 70 -152 30 1 0 0 0 1 0 0 0 1 3034.dat
1 14 170 -152 30 1 0 0 0 1 0 0 0 1 3022.dat
1 14 50 -160 30 1 0 0 0 1 0 0 0 1 3795.dat
1 14 150 -160 30 1 0 0 0 1 0 0 0 1 3020.dat
0 STEP
1 14 0 -168 30 0 0 -1 0 1 0 1 0 0 3069b.dat
1 14 30 -168 30 1 0 0 0 1 0 0 0 1 3068b.dat
1 14 90 -168 20 1 0 0 0 1 0 0 0 1 2431.dat
1 14 140 -168 30 0 0 -1 0 1 0 1 0 0 3069b.dat
1 14 170 -168 30 1 0 0 0 1 0 0 0 1 3068b.dat
1 14 90 -168 40 1 0 0 0 1 0 0 0 1 2431.dat
0 STEP
0 ROTSTEP END
