0 cantilever-beauty
0 Name: cantilever-beauty.ldr
0 Author: legolization
0 !LDRAW_ORG Unofficial_Model
0 !LICENSE Licensed under GPL-3.0-or-later
1 7 30 -8 10 1 0 0 0 1 0 0 0 1 3020.dat
1 7 80 -8 20 0 0 -1 0 1 0 1 0 0 3623.dat
1 7 110 -8 30 0 0 -1 0 1 0 1 0 0 3020.dat
1 7 150 -8 20 0 0 -1 0 1 0 1 0 0 3021.dat
1 7 180 -8 20 0 0 -1 0 1 0 1 0 0 3623.dat
1 7 10 -8 50 1 0 0 0 1 0 0 0 1 3022.dat
1 7 50 -8 40 1 0 0 0 1 0 0 0 1 3023.dat
1 7 60 -8 60 1 0 0 0 1 0 0 0 1 3623.dat
1 7 160 -8 60 1 0 0 0 1 0 0 0 1 3623.dat
0 STEP
1 7 30 -16 10 1 0 0 0 1 0 0 0 1 3020.dat
1 7 130 -16 0 1 0 0 0 1 0 0 0 1 3666.dat
1 7 90 -16 20 1 0 0 0 1 0 0 0 1 3023.dat
1 7 130 -16 40 0 0 -1 0 1 0 1 0 0 3021.dat
1 7 170 -16 40 0 0 -1 0 1 0 1 0 0 3021.dat
1 7 0 -16 50 0 0 -1 0 1 0 1 0 0 3023.dat
1 7 50 -16 50 1 0 0 0 1 0 0 0 1 3020.dat
1 7 100 -16 50 0 0 -1 0 1 0 1 0 0 3023.dat
0 STEP
1 7 0 -24 20 0 0 -1 0 1 0 1 0 0 3623.dat
1 7 90 -24 10 1 0 0 0 1 0 0 0 1 3034.dat
1 7 180 -24 30 0 0 -1 0 1 0 1 0 0 2431.dat
1 7 50 -24 40 1 0 0 0 1 0 0 0 1 3710.dat
1 7 100 -24 40 1 0 0 0 1 0 0 0 1 3070b.dat
1 7 130 -24 40 1 0 0 0 1 0 0 0 1 3069b.dat
1 7 160 -24 50 0 0 -1 0 1 0 1 0 0 3069b.dat
1 7 30 -24 60 1 0 0 0 1 0 0 0 1 2431.dat
1 7 110 -24 60 1 0 0 0 1 0 0 0 1 2431.dat
0 STEP
0 ROTSTEP 0 180 0 REL
1 4 10 -32 30 1 0 0 0 1 0 0 0 1 3022.dat
0 STEP
1 4 10 -40 30 1 0 0 0 1 0 0 0 1 3022.dat
0 STEP
1 4 10 -48 30 1 0 0 0 1 0 0 0 1 3022.dat
0 STEP
1 4 10 -72 30 1 0 0 0 1 0 0 0 1 3003.dat
0 STEP
1 4 10 -96 30 1 0 0 0 1 0 0 0 1 3003.dat
0 STEP
1 4 10 -120 30 1 0 0 0 1 0 0 0 1 3003.dat
0 STEP
1 14 70 -144 30 1 0 0 0 1 0 0 0 1 3007.dat
1 14 170 -144 30 1 0 0 0 1 0 0 0 1 3003.dat
1 14 50 -168 30 1 0 0 0 1 0 0 0 1 2456.dat
1 14 150 -168 30 1 0 0 0 1 0 0 0 1 3001.dat
0 STEP
0 ROTSTEP END
